<svg xmlns="http://www.w3.org/2000/svg" viewBox="0 0 32 32"><defs><style>.cls-1{fill:#d1e6e9;}.cls-2{fill:#a1d8df;}.cls-3{fill:#30acc2;}.cls-4{fill:#68c7d3;}</style></defs><title>Bottle Capsule</title><g id="Bottle_Capsule"><rect class="cls-1" x="3" y="1" width="18" height="6"/><path class="cls-2" d="M19,9V7H5V9L2.11,10.45A2,2,0,0,0,1,12.24V29a2,2,0,0,0,2,2H21a2,2,0,0,0,2-2V12.24a2,2,0,0,0-1.11-1.79Z"/><rect class="cls-3" x="4" y="14" width="16" height="14"/><rect class="cls-1" x="8" y="20" width="8" height="2"/><rect class="cls-1" x="8" y="20" width="8" height="2" transform="translate(33 9) rotate(90)"/><path class="cls-3" d="M31,23.83a2.83,2.83,0,0,1-.83,2L27.5,28.5l-1.67,1.67a2.83,2.83,0,1,1-4-4L23.5,24.5l2.67-2.67a2.83,2.83,0,0,1,4.83,2Z"/><path class="cls-4" d="M31,23.83a2.83,2.83,0,0,1-.83,2L28,28l-4-4,2.17-2.17a2.83,2.83,0,0,1,4.83,2Z"/></g></svg>