<?xml version="1.0" encoding="iso-8859-1"?>
<!-- Generator: Adobe Illustrator 22.0.1, SVG Export Plug-In . SVG Version: 6.00 Build 0)  -->
<svg version="1.1" id="Icons" xmlns="http://www.w3.org/2000/svg" xmlns:xlink="http://www.w3.org/1999/xlink" x="0px" y="0px"
	 viewBox="0 0 512 512" style="enable-background:new 0 0 512 512;" xml:space="preserve">
<g>
	<path id="XMLID_62_" style="fill:#FC840A;" d="M512,255.904c0,70.692-28.654,134.692-74.981,181.019S326.692,511.904,256,511.904
		S121.308,483.25,74.981,436.924S0,326.597,0,255.904S28.654,121.212,74.981,74.885S185.308-0.096,256-0.096
		s134.692,28.654,181.019,74.981S512,185.212,512,255.904z"/>
	<g id="XMLID_2535_">
		<path id="XMLID_2598_" style="fill:#FADDBE;" d="M302.489,449.737H164.404H26.32c-2.125,0-4.048-0.861-5.44-2.253
			c-1.392-1.392-2.253-3.316-2.253-5.44V242.843V43.642c0-2.125,0.861-4.048,2.253-5.44c1.392-1.392,3.316-2.253,5.44-2.253h138.084
			h138.084c2.125,0,4.048,0.861,5.44,2.253s2.253,3.316,2.253,5.44v199.201v199.201c0,2.125-0.861,4.048-2.253,5.44
			C306.537,448.876,304.613,449.737,302.489,449.737z"/>
		<path id="XMLID_2597_" style="fill:#E8CDB5;" d="M266.049,398.021H164.404H62.76c-2.125,0-4.048-0.861-5.44-2.254
			c-1.392-1.392-2.253-3.316-2.253-5.44V242.843V95.358c0-2.125,0.861-4.048,2.253-5.44s3.316-2.253,5.44-2.253h101.645h101.645
			c2.125,0,4.048,0.861,5.44,2.253c1.392,1.392,2.253,3.316,2.253,5.44v147.484v147.484c0,2.125-0.861,4.048-2.253,5.44
			C270.097,397.159,268.174,398.021,266.049,398.021z"/>
		<path id="XMLID_2596_" style="fill:#FFFFFF;" d="M142.023,166.321h-43.87h-43.87c-2.946,0-5.612-1.194-7.542-3.124
			c-1.93-1.93-3.124-4.597-3.124-7.542v-44.079V67.497c0-2.946,1.194-5.612,3.124-7.542s4.597-3.124,7.542-3.124h43.87h43.87
			c2.946,0,5.612,1.194,7.542,3.124c1.93,1.93,3.124,4.597,3.124,7.542v44.079v44.079c0,2.946-1.194,5.612-3.124,7.542
			C147.635,165.127,144.969,166.321,142.023,166.321z"/>
		<polyline id="XMLID_2595_" style="fill:none;stroke:#1F3D5C;stroke-width:8;stroke-linecap:round;stroke-miterlimit:10;" points="
			191.217,84.501 224.538,84.501 257.859,84.501 		"/>
		<polyline id="XMLID_2594_" style="fill:none;stroke:#1F3D5C;stroke-width:8;stroke-linecap:round;stroke-miterlimit:10;" points="
			168.83,120.097 224.538,120.097 280.246,120.097 		"/>
		<polyline id="XMLID_2593_" style="fill:none;stroke:#1F3D5C;stroke-width:8;stroke-linecap:round;stroke-miterlimit:10;" points="
			49.864,249.923 84.747,249.923 119.63,249.923 		"/>
		<polyline id="XMLID_2592_" style="fill:none;stroke:#1F3D5C;stroke-width:8;stroke-linecap:round;stroke-miterlimit:10;" points="
			147.744,250.607 167.528,250.607 187.312,250.607 		"/>
		<polyline id="XMLID_2591_" style="fill:none;stroke:#1F3D5C;stroke-width:8;stroke-linecap:round;stroke-miterlimit:10;" points="
			224.538,250.607 252.392,250.607 280.246,250.607 		"/>
		<polyline id="XMLID_2590_" style="fill:none;stroke:#1F3D5C;stroke-width:8;stroke-linecap:round;stroke-miterlimit:10;" points="
			49.864,298.536 108.696,298.536 167.528,298.536 		"/>
		<polyline id="XMLID_2589_" style="fill:none;stroke:#1F3D5C;stroke-width:8;stroke-linecap:round;stroke-miterlimit:10;" points="
			191.217,298.536 235.731,298.536 280.246,298.536 		"/>
		<polyline id="XMLID_2588_" style="fill:none;stroke:#1F3D5C;stroke-width:8;stroke-linecap:round;stroke-miterlimit:10;" points="
			49.864,341.512 67.306,341.512 84.747,341.512 		"/>
		<polyline id="XMLID_2587_" style="fill:none;stroke:#1F3D5C;stroke-width:8;stroke-linecap:round;stroke-miterlimit:10;" points="
			108.696,341.512 158.938,341.512 209.179,341.512 		"/>
		<polyline id="XMLID_2586_" style="fill:none;stroke:#1F3D5C;stroke-width:8;stroke-linecap:round;stroke-miterlimit:10;" points="
			233.128,341.512 256.687,341.512 280.246,341.512 		"/>
		<g id="XMLID_2583_">
			<path id="XMLID_2585_" style="fill:#C23C4D;" d="M144.499,100.126v11.39v11.39c0,2.168-0.88,4.132-2.302,5.554
				c-1.422,1.422-3.386,2.302-5.554,2.302h-5.695h-5.695c-2.168,0-4.132,0.88-5.554,2.302c-1.422,1.422-2.302,3.386-2.302,5.554
				v5.695v5.695c0,2.168-0.88,4.132-2.302,5.554s-3.386,2.302-5.554,2.302h-11.39h-11.39c-2.168,0-4.132-0.88-5.554-2.302
				c-1.422-1.422-2.302-3.386-2.302-5.554v-5.695v-5.695c0-2.168-0.88-4.132-2.302-5.554c-1.422-1.422-3.386-2.302-5.554-2.302
				h-5.695h-5.695c-2.168,0-4.132-0.88-5.554-2.302c-1.422-1.422-2.302-3.386-2.302-5.554v-11.39v-11.39
				c0-2.168,0.88-4.132,2.302-5.554c1.422-1.422,3.386-2.302,5.554-2.302h5.695h5.695c2.168,0,4.132-0.88,5.554-2.302
				c1.422-1.422,2.302-3.386,2.302-5.554v-5.695v-5.695c0-2.168,0.88-4.132,2.302-5.554c1.422-1.422,3.386-2.302,5.554-2.302h11.39
				h11.39c2.168,0,4.132,0.88,5.554,2.302c1.422,1.422,2.302,3.386,2.302,5.554v5.695v5.695c0,2.168,0.88,4.132,2.302,5.554
				c1.422,1.422,3.386,2.302,5.554,2.302h5.695h5.695c2.168,0,4.132,0.88,5.554,2.302
				C143.619,95.994,144.499,97.958,144.499,100.126z"/>
			<path id="XMLID_2584_" style="fill:#F94755;" d="M144.499,100.126v11.39v11.39c0,2.168-0.88,4.132-2.302,5.554
				c-1.422,1.422-3.386,2.302-5.554,2.302h-5.695h-5.695c-2.168,0-4.132,0.88-5.554,2.302c-1.422,1.422-2.302,3.386-2.302,5.554
				v5.695v5.695c0,2.168-0.88,4.132-2.302,5.554s-3.386,2.302-5.554,2.302h-2.749h-2.749c-2.168,0-4.132-0.88-5.554-2.302
				s-2.302-3.386-2.302-5.554v-5.695v-5.695c0-2.168-0.88-4.132-2.302-5.554c-1.422-1.422-3.386-2.302-5.554-2.302h-5.695h-5.695
				c-2.168,0-4.132-0.88-5.554-2.302c-1.422-1.422-2.302-3.386-2.302-5.554v-11.39v-11.39c0-2.168,0.88-4.132,2.302-5.554
				c1.422-1.422,3.386-2.302,5.554-2.302h5.695h5.695c2.168,0,4.132-0.88,5.554-2.302c1.422-1.422,2.302-3.386,2.302-5.554v-5.695
				v-5.695c0-2.168,0.88-4.132,2.302-5.554c1.422-1.422,3.386-2.302,5.554-2.302h2.749h2.749c2.168,0,4.132,0.88,5.554,2.302
				c1.422,1.422,2.302,3.386,2.302,5.554v5.695v5.695c0,2.168,0.88,4.132,2.302,5.554c1.422,1.422,3.386,2.302,5.554,2.302h5.695
				h5.695c2.168,0,4.132,0.88,5.554,2.302C143.619,95.994,144.499,97.958,144.499,100.126z"/>
		</g>
		<g id="XMLID_2536_">
			<path id="XMLID_2582_" style="fill:#ABD2E7;" d="M493.623,142.527l-38.328,132.026l-38.328,132.026
				c-0.726,2.502-2.397,4.472-4.511,5.635s-4.672,1.518-7.174,0.792l-75.784-22l-75.784-22.001
				c-2.502-0.726-4.472-2.397-5.635-4.511c-1.163-2.114-1.518-4.672-0.792-7.174l38.328-132.026l38.328-132.026
				c0.726-2.502,2.397-4.472,4.511-5.635c2.114-1.163,4.672-1.518,7.174-0.792l75.784,22l75.784,22.001
				c2.502,0.726,4.472,2.397,5.635,4.511S494.35,140.024,493.623,142.527z"/>
			<path id="XMLID_2581_" style="fill:#B6E0FB;" d="M493.623,142.527l-38.328,132.026l-38.328,132.026
				c-0.726,2.502-2.397,4.472-4.511,5.635s-4.672,1.518-7.174,0.792l-57.672-16.743l-57.672-16.743
				c-2.502-0.726-4.472-2.397-5.635-4.511c-1.163-2.114-1.518-4.672-0.792-7.174l38.328-132.026l38.328-132.026
				c0.726-2.502,2.397-4.472,4.511-5.635c2.114-1.163,4.672-1.518,7.174-0.792l57.672,16.743l57.672,16.743
				c2.502,0.726,4.472,2.397,5.635,4.511S494.35,140.024,493.623,142.527z"/>
			<path id="XMLID_2580_" style="fill:#9DBCCA;" d="M407.615,120.142c-1.974-0.573-4.087,0.028-5.906,1.464
				c-1.82,1.436-3.346,3.706-4.149,6.47l-35.33,121.699L326.9,371.474c-0.802,2.764-0.729,5.499,0.039,7.685
				c0.768,2.187,2.23,3.826,4.204,4.399c1.974,0.573,4.087-0.028,5.906-1.464c1.82-1.436,3.346-3.706,4.149-6.47l35.33-121.699
				l35.33-121.699c0.802-2.764,0.729-5.499-0.039-7.685C411.051,122.354,409.589,120.715,407.615,120.142z"/>
			<g id="XMLID_2573_">
				<path id="XMLID_2579_" style="fill:#AD3948;" d="M360.803,124.516l6.723,12.224l6.723,12.224
					c1.946,3.538,2.587,7.441,2.085,11.156c-0.502,3.715-2.148,7.243-4.776,10.03c-0.632,0.671-1.321,1.3-2.066,1.877
					s-1.544,1.105-2.395,1.573c-4.389,2.414-9.341,2.821-13.8,1.526c-4.458-1.294-8.423-4.289-10.837-8.679l-6.723-12.224
					l-6.723-12.224c-2.414-4.389-2.821-9.341-1.526-13.8c1.294-4.458,4.289-8.423,8.679-10.837c0.852-0.468,1.724-0.861,2.61-1.18
					c0.886-0.319,1.786-0.565,2.693-0.74c1.427-0.276,2.87-0.376,4.296-0.308c1.427,0.068,2.837,0.305,4.201,0.701
					c2.228,0.648,4.334,1.72,6.185,3.18C358.001,120.476,359.596,122.322,360.803,124.516z"/>
				<path id="XMLID_2578_" style="fill:#2693D5;" d="M360.803,124.516l3.726,6.774l3.726,6.774l-15.894,8.742l-15.895,8.742
					l-3.726-6.774l-3.726-6.774c-2.414-4.389-2.821-9.341-1.526-13.8c1.294-4.458,4.289-8.423,8.679-10.837
					c0.852-0.468,1.724-0.861,2.61-1.18c0.886-0.319,1.786-0.565,2.693-0.74c1.427-0.276,2.87-0.376,4.296-0.308
					c1.427,0.068,2.837,0.305,4.201,0.701c2.228,0.648,4.334,1.72,6.185,3.18C358.001,120.476,359.596,122.322,360.803,124.516z"/>
				<path id="XMLID_2577_" style="fill:#F44755;" d="M360.803,124.516l6.723,12.224l6.723,12.224
					c1.946,3.538,2.587,7.441,2.085,11.156c-0.502,3.715-2.148,7.243-4.776,10.03c-3.761,0.727-7.622,0.228-11.029-1.337
					c-3.407-1.565-6.36-4.197-8.305-7.735l-6.723-12.224l-6.723-12.224c-1.946-3.538-2.587-7.441-2.085-11.156
					c0.502-3.715,2.148-7.243,4.776-10.03c1.427-0.276,2.87-0.376,4.296-0.308c1.427,0.068,2.837,0.305,4.201,0.701
					c2.228,0.648,4.334,1.72,6.185,3.18C358.001,120.476,359.596,122.322,360.803,124.516z"/>
				<path id="XMLID_2576_" style="fill:#2D9DF6;" d="M360.803,124.516c-1.207-2.195-2.802-4.04-4.652-5.5
					c-1.85-1.459-3.956-2.532-6.185-3.18c-1.364-0.396-2.774-0.632-4.201-0.701c-1.426-0.068-2.869,0.032-4.296,0.308
					c-2.628,2.787-4.274,6.315-4.776,10.03c-0.502,3.715,0.139,7.619,2.085,11.156l3.726,6.774l3.726,6.774l5.506-3.029l5.506-3.029
					l-2.576-4.683l-2.576-4.683c-0.612-1.113-0.715-2.369-0.387-3.499c0.328-1.131,1.088-2.136,2.201-2.748
					c1.113-0.612,2.369-0.715,3.499-0.387c1.131,0.328,2.136,1.088,2.748,2.201l2.576,4.683l2.576,4.683l1.476-0.812l1.476-0.812
					l-3.726-6.774L360.803,124.516z"/>
				<path id="XMLID_2575_" style="fill:#F47A80;" d="M362.395,153.489c0.612,1.113,1.617,1.872,2.748,2.201
					c1.131,0.328,2.386,0.225,3.499-0.387c1.113-0.612,1.872-1.617,2.201-2.748c0.328-1.131,0.225-2.386-0.387-3.499l-2.576-4.683
					l-2.576-4.683l-4.03,2.217l-4.03,2.217l2.576,4.683L362.395,153.489z"/>
				<path id="XMLID_2574_" style="fill:#62BFF4;" d="M353.905,128.509c-1.113,0.612-1.872,1.617-2.201,2.748
					c-0.328,1.131-0.225,2.386,0.387,3.499l2.576,4.683l2.576,4.683l4.03-2.217l4.03-2.217l-2.576-4.683l-2.576-4.683
					c-0.612-1.113-1.617-1.872-2.748-2.201C356.274,127.793,355.018,127.897,353.905,128.509z"/>
			</g>
			<g id="XMLID_2566_">
				<path id="XMLID_2572_" style="fill:#AD3948;" d="M451.133,150.739l6.723,12.224l6.723,12.224
					c1.946,3.538,2.587,7.441,2.085,11.156c-0.502,3.715-2.148,7.243-4.776,10.03c-0.632,0.671-1.321,1.3-2.066,1.877
					c-0.744,0.578-1.544,1.105-2.395,1.573c-4.389,2.414-9.341,2.821-13.8,1.526s-8.423-4.289-10.837-8.679l-6.723-12.224
					l-6.723-12.224c-2.414-4.389-2.821-9.341-1.526-13.8c1.294-4.458,4.289-8.423,8.679-10.837c0.852-0.468,1.724-0.861,2.61-1.18
					c0.886-0.319,1.786-0.565,2.693-0.74c1.427-0.276,2.87-0.376,4.296-0.308c1.426,0.068,2.837,0.305,4.201,0.701
					c2.229,0.648,4.334,1.72,6.185,3.18C448.331,146.699,449.926,148.545,451.133,150.739z"/>
				<path id="XMLID_2571_" style="fill:#2693D5;" d="M451.133,150.739l3.726,6.774l3.726,6.774l-15.894,8.742l-15.895,8.742
					l-3.726-6.774l-3.726-6.774c-2.414-4.389-2.821-9.341-1.526-13.8c1.294-4.458,4.289-8.423,8.679-10.837
					c0.852-0.468,1.724-0.861,2.61-1.18c0.886-0.319,1.786-0.565,2.693-0.74c1.427-0.276,2.87-0.376,4.296-0.308
					c1.426,0.068,2.837,0.305,4.201,0.701c2.229,0.648,4.334,1.72,6.185,3.18C448.331,146.699,449.926,148.545,451.133,150.739z"/>
				<path id="XMLID_2570_" style="fill:#F44755;" d="M451.133,150.739l6.723,12.224l6.723,12.224
					c1.946,3.538,2.587,7.441,2.085,11.156c-0.502,3.715-2.148,7.243-4.776,10.03c-3.761,0.727-7.622,0.228-11.029-1.337
					c-3.407-1.565-6.36-4.197-8.305-7.735l-6.723-12.224l-6.723-12.224c-1.946-3.538-2.587-7.441-2.085-11.156
					c0.502-3.715,2.148-7.243,4.776-10.03c1.427-0.276,2.87-0.376,4.296-0.308c1.426,0.068,2.837,0.305,4.201,0.701
					c2.229,0.648,4.334,1.72,6.185,3.18C448.331,146.699,449.926,148.545,451.133,150.739z"/>
				<path id="XMLID_2569_" style="fill:#2D9DF6;" d="M451.133,150.739c-1.207-2.195-2.802-4.04-4.652-5.5
					c-1.85-1.459-3.956-2.532-6.185-3.18c-1.364-0.396-2.774-0.632-4.201-0.701c-1.427-0.068-2.869,0.032-4.296,0.308
					c-2.628,2.787-4.274,6.315-4.776,10.03c-0.502,3.715,0.139,7.619,2.085,11.156l3.726,6.774l3.726,6.774l5.506-3.029l5.506-3.029
					l-2.576-4.683l-2.576-4.683c-0.612-1.113-0.715-2.369-0.387-3.499c0.328-1.131,1.088-2.136,2.201-2.748
					c1.113-0.612,2.369-0.715,3.499-0.387s2.136,1.088,2.748,2.201l2.576,4.683l2.576,4.683l1.476-0.812l1.476-0.812l-3.726-6.774
					L451.133,150.739z"/>
				<path id="XMLID_2568_" style="fill:#F47A80;" d="M452.724,179.712c0.612,1.113,1.617,1.872,2.748,2.201
					c1.131,0.328,2.386,0.225,3.499-0.387c1.113-0.612,1.872-1.617,2.201-2.748c0.328-1.131,0.225-2.386-0.387-3.499l-2.576-4.683
					l-2.576-4.683l-4.03,2.217l-4.03,2.217l2.576,4.683L452.724,179.712z"/>
				<path id="XMLID_2567_" style="fill:#62BFF4;" d="M444.234,154.732c-1.113,0.612-1.872,1.617-2.201,2.748
					c-0.328,1.131-0.225,2.386,0.387,3.499l2.576,4.683l2.576,4.683l4.03-2.217l4.03-2.217l-2.576-4.683l-2.576-4.683
					c-0.612-1.113-1.617-1.872-2.748-2.201S445.347,154.12,444.234,154.732z"/>
			</g>
			<g id="XMLID_2559_">
				<path id="XMLID_2565_" style="fill:#AD3948;" d="M334.706,214.412l6.723,12.224l6.723,12.224
					c1.946,3.538,2.587,7.441,2.085,11.156c-0.502,3.715-2.148,7.243-4.776,10.03c-0.632,0.671-1.321,1.3-2.066,1.877
					c-0.744,0.578-1.544,1.105-2.395,1.573c-4.389,2.414-9.341,2.821-13.8,1.526s-8.423-4.289-10.837-8.679l-6.723-12.224
					l-6.723-12.224c-2.414-4.389-2.821-9.341-1.526-13.8s4.289-8.423,8.679-10.837c0.852-0.468,1.724-0.861,2.61-1.18
					c0.886-0.319,1.786-0.565,2.693-0.74c1.427-0.276,2.87-0.376,4.296-0.308c1.427,0.068,2.837,0.305,4.201,0.701
					c2.228,0.648,4.334,1.72,6.185,3.18C331.904,210.372,333.499,212.218,334.706,214.412z"/>
				<path id="XMLID_2564_" style="fill:#2693D5;" d="M334.706,214.412l3.726,6.774l3.726,6.774l-15.894,8.742l-15.894,8.742
					l-3.726-6.774l-3.726-6.774c-2.414-4.389-2.821-9.341-1.526-13.8s4.289-8.423,8.679-10.837c0.852-0.468,1.724-0.861,2.61-1.18
					c0.886-0.319,1.786-0.565,2.693-0.74c1.427-0.276,2.87-0.376,4.296-0.308c1.427,0.068,2.837,0.305,4.201,0.701
					c2.228,0.648,4.334,1.72,6.185,3.18C331.904,210.372,333.499,212.218,334.706,214.412z"/>
				<path id="XMLID_2563_" style="fill:#F44755;" d="M334.706,214.412l6.723,12.224l6.723,12.224
					c1.946,3.538,2.587,7.441,2.085,11.156c-0.502,3.715-2.148,7.243-4.776,10.03c-3.761,0.727-7.622,0.228-11.029-1.337
					c-3.407-1.565-6.36-4.197-8.305-7.735l-6.723-12.224l-6.723-12.224c-1.946-3.538-2.587-7.441-2.085-11.156
					s2.148-7.243,4.776-10.03c1.427-0.276,2.87-0.376,4.296-0.308c1.427,0.068,2.837,0.305,4.201,0.701
					c2.228,0.648,4.334,1.72,6.185,3.18C331.904,210.372,333.499,212.218,334.706,214.412z"/>
				<path id="XMLID_2562_" style="fill:#2D9DF6;" d="M334.706,214.412c-1.207-2.195-2.802-4.04-4.652-5.5
					c-1.85-1.459-3.956-2.532-6.185-3.18c-1.364-0.396-2.774-0.632-4.201-0.701c-1.426-0.068-2.869,0.032-4.296,0.308
					c-2.628,2.787-4.274,6.315-4.776,10.03s0.139,7.619,2.085,11.156l3.726,6.774l3.726,6.774l5.506-3.029l5.506-3.029l-2.576-4.683
					l-2.576-4.683c-0.612-1.113-0.715-2.369-0.387-3.499c0.328-1.131,1.088-2.136,2.201-2.748s2.369-0.715,3.499-0.387
					c1.13,0.328,2.136,1.088,2.748,2.201l2.576,4.683l2.576,4.683l1.476-0.812l1.476-0.812l-3.726-6.774L334.706,214.412z"/>
				<path id="XMLID_2561_" style="fill:#F47A80;" d="M336.297,243.385c0.612,1.113,1.617,1.872,2.748,2.201
					c1.13,0.328,2.386,0.225,3.499-0.387c1.113-0.612,1.872-1.617,2.201-2.748c0.328-1.131,0.225-2.386-0.387-3.499l-2.576-4.683
					l-2.576-4.683l-4.03,2.217l-4.03,2.217l2.576,4.683L336.297,243.385z"/>
				<path id="XMLID_2560_" style="fill:#62BFF4;" d="M327.808,218.405c-1.113,0.612-1.872,1.617-2.201,2.748
					c-0.328,1.131-0.225,2.386,0.387,3.499l2.576,4.683l2.576,4.683l4.03-2.217l4.03-2.217l-2.576-4.683l-2.576-4.683
					c-0.612-1.113-1.617-1.872-2.748-2.201C330.176,217.689,328.921,217.793,327.808,218.405z"/>
			</g>
			<g id="XMLID_2552_">
				<path id="XMLID_2558_" style="fill:#AD3948;" d="M425.036,240.635l6.723,12.224l6.723,12.224
					c1.946,3.538,2.587,7.441,2.085,11.156s-2.148,7.243-4.776,10.03c-0.632,0.671-1.321,1.3-2.066,1.877
					c-0.744,0.578-1.544,1.105-2.395,1.573c-4.389,2.414-9.341,2.821-13.8,1.526c-4.458-1.294-8.423-4.289-10.837-8.679
					l-6.723-12.224l-6.723-12.224c-2.414-4.389-2.821-9.341-1.526-13.8c1.294-4.458,4.289-8.423,8.679-10.837
					c0.852-0.468,1.724-0.861,2.61-1.18c0.886-0.319,1.786-0.565,2.693-0.74c1.427-0.276,2.87-0.376,4.296-0.308
					c1.427,0.068,2.837,0.305,4.201,0.701c2.228,0.648,4.334,1.72,6.185,3.18C422.233,236.595,423.828,238.441,425.036,240.635z"/>
				<path id="XMLID_2557_" style="fill:#2693D5;" d="M425.036,240.635l3.726,6.774l3.726,6.774l-15.894,8.742l-15.895,8.742
					l-3.726-6.774l-3.726-6.774c-2.414-4.389-2.821-9.341-1.526-13.8c1.294-4.458,4.289-8.423,8.679-10.837
					c0.852-0.468,1.724-0.861,2.61-1.18c0.886-0.319,1.786-0.565,2.693-0.74c1.427-0.276,2.87-0.376,4.296-0.308
					c1.427,0.068,2.837,0.305,4.201,0.701c2.228,0.648,4.334,1.72,6.185,3.18C422.233,236.595,423.828,238.441,425.036,240.635z"/>
				<path id="XMLID_2556_" style="fill:#F44755;" d="M425.036,240.635l6.723,12.224l6.723,12.224
					c1.946,3.538,2.587,7.441,2.085,11.156s-2.148,7.243-4.776,10.03c-3.761,0.727-7.622,0.228-11.029-1.337
					c-3.407-1.565-6.36-4.197-8.305-7.735l-6.723-12.224l-6.723-12.224c-1.946-3.538-2.587-7.441-2.085-11.156
					c0.502-3.715,2.148-7.243,4.776-10.03c1.427-0.276,2.87-0.376,4.296-0.308c1.427,0.068,2.837,0.305,4.201,0.701
					c2.228,0.648,4.334,1.72,6.185,3.18C422.233,236.595,423.828,238.441,425.036,240.635z"/>
				<path id="XMLID_2555_" style="fill:#2D9DF6;" d="M425.036,240.635c-1.207-2.195-2.802-4.04-4.652-5.5
					c-1.85-1.459-3.956-2.532-6.185-3.18c-1.364-0.396-2.774-0.632-4.201-0.701c-1.426-0.068-2.869,0.032-4.296,0.308
					c-2.628,2.787-4.274,6.315-4.776,10.03c-0.502,3.715,0.139,7.619,2.085,11.156l3.726,6.774l3.726,6.774l5.506-3.029l5.506-3.029
					l-2.576-4.683l-2.576-4.683c-0.612-1.113-0.715-2.369-0.387-3.499c0.328-1.131,1.088-2.136,2.201-2.748
					c1.113-0.612,2.369-0.715,3.499-0.387c1.131,0.328,2.136,1.088,2.748,2.201l2.576,4.683l2.576,4.683l1.476-0.812l1.476-0.812
					l-3.726-6.774L425.036,240.635z"/>
				<path id="XMLID_2554_" style="fill:#F47A80;" d="M426.627,269.608c0.612,1.113,1.617,1.872,2.748,2.201
					c1.131,0.328,2.386,0.225,3.499-0.387s1.872-1.617,2.201-2.748s0.225-2.386-0.387-3.499l-2.576-4.683l-2.576-4.683l-4.03,2.217
					l-4.03,2.217l2.576,4.683L426.627,269.608z"/>
				<path id="XMLID_2553_" style="fill:#62BFF4;" d="M418.137,244.628c-1.113,0.612-1.872,1.617-2.201,2.748
					c-0.328,1.131-0.225,2.386,0.387,3.499l2.576,4.683l2.576,4.683l4.03-2.217l4.03-2.217l-2.576-4.683l-2.576-4.683
					c-0.612-1.113-1.617-1.872-2.748-2.201C420.506,243.913,419.25,244.016,418.137,244.628z"/>
			</g>
			<g id="XMLID_2545_">
				<path id="XMLID_2551_" style="fill:#AD3948;" d="M309.812,300.163l6.723,12.224l6.723,12.224
					c1.946,3.538,2.587,7.441,2.085,11.156s-2.148,7.243-4.776,10.03c-0.632,0.671-1.321,1.3-2.066,1.877
					c-0.744,0.578-1.544,1.105-2.395,1.573c-4.389,2.414-9.341,2.821-13.8,1.526c-4.458-1.294-8.423-4.289-10.837-8.679
					l-6.723-12.224l-6.723-12.224c-2.414-4.389-2.821-9.341-1.526-13.8c1.294-4.458,4.289-8.423,8.679-10.837
					c0.852-0.468,1.724-0.861,2.61-1.18c0.886-0.319,1.786-0.565,2.693-0.74c1.427-0.276,2.87-0.376,4.296-0.308
					c1.427,0.068,2.837,0.305,4.201,0.701c2.228,0.648,4.334,1.72,6.185,3.18C307.01,296.123,308.605,297.969,309.812,300.163z"/>
				<path id="XMLID_2550_" style="fill:#2693D5;" d="M309.812,300.163l3.726,6.774l3.726,6.774l-15.894,8.742l-15.895,8.742
					l-3.726-6.774l-3.726-6.774c-2.414-4.389-2.821-9.341-1.526-13.8c1.294-4.458,4.289-8.423,8.679-10.837
					c0.852-0.468,1.724-0.861,2.61-1.18c0.886-0.319,1.786-0.565,2.693-0.74c1.427-0.276,2.87-0.376,4.296-0.308
					c1.427,0.068,2.837,0.305,4.201,0.701c2.228,0.648,4.334,1.72,6.185,3.18C307.01,296.123,308.605,297.969,309.812,300.163z"/>
				<path id="XMLID_2549_" style="fill:#F44755;" d="M309.812,300.163l6.723,12.224l6.723,12.224
					c1.946,3.538,2.587,7.441,2.085,11.156s-2.148,7.243-4.776,10.03c-3.761,0.727-7.622,0.228-11.029-1.337
					s-6.36-4.197-8.305-7.735l-6.723-12.224l-6.723-12.224c-1.946-3.538-2.587-7.441-2.085-11.156s2.148-7.243,4.776-10.03
					c1.427-0.276,2.87-0.376,4.296-0.308c1.427,0.068,2.837,0.305,4.201,0.701c2.228,0.648,4.334,1.72,6.185,3.18
					C307.01,296.123,308.605,297.969,309.812,300.163z"/>
				<path id="XMLID_2548_" style="fill:#2D9DF6;" d="M309.812,300.163c-1.207-2.195-2.802-4.04-4.652-5.5
					c-1.85-1.459-3.956-2.532-6.185-3.18c-1.364-0.396-2.774-0.632-4.201-0.701c-1.426-0.068-2.869,0.031-4.296,0.308
					c-2.628,2.787-4.274,6.315-4.776,10.03s0.139,7.619,2.085,11.156l3.726,6.774l3.726,6.774l5.506-3.029l5.506-3.029l-2.576-4.683
					l-2.576-4.683c-0.612-1.113-0.715-2.369-0.387-3.499c0.328-1.131,1.088-2.136,2.201-2.748c1.113-0.612,2.369-0.715,3.499-0.387
					s2.136,1.088,2.748,2.201l2.576,4.683l2.576,4.683l1.476-0.812l1.476-0.812l-3.726-6.774L309.812,300.163z"/>
				<path id="XMLID_2547_" style="fill:#F47A80;" d="M311.403,329.136c0.612,1.113,1.617,1.872,2.748,2.201s2.386,0.225,3.499-0.387
					s1.872-1.617,2.201-2.748s0.225-2.386-0.387-3.499l-2.576-4.683l-2.576-4.683l-4.03,2.217l-4.03,2.217l2.576,4.683
					L311.403,329.136z"/>
				<path id="XMLID_2546_" style="fill:#62BFF4;" d="M302.914,304.156c-1.113,0.612-1.872,1.617-2.201,2.748
					c-0.328,1.131-0.225,2.386,0.387,3.499l2.576,4.683l2.576,4.683l4.03-2.217l4.03-2.217l-2.576-4.683l-2.576-4.683
					c-0.612-1.113-1.617-1.872-2.748-2.201S304.027,303.544,302.914,304.156z"/>
			</g>
			<g id="XMLID_2538_">
				<path id="XMLID_2544_" style="fill:#AD3948;" d="M400.142,326.386l6.723,12.224l6.723,12.224
					c1.946,3.538,2.587,7.441,2.085,11.156c-0.502,3.715-2.148,7.243-4.776,10.03c-0.632,0.671-1.321,1.3-2.066,1.877
					c-0.744,0.578-1.544,1.105-2.395,1.573c-4.389,2.414-9.341,2.821-13.8,1.526s-8.423-4.289-10.837-8.679l-6.723-12.224
					l-6.723-12.224c-2.414-4.389-2.821-9.341-1.526-13.8c1.294-4.458,4.289-8.423,8.679-10.837c0.851-0.468,1.724-0.861,2.61-1.18
					c0.886-0.319,1.786-0.565,2.693-0.74c1.427-0.276,2.87-0.376,4.296-0.308c1.426,0.068,2.837,0.305,4.201,0.701
					c2.229,0.648,4.334,1.72,6.185,3.18C397.34,322.346,398.934,324.192,400.142,326.386z"/>
				<path id="XMLID_2543_" style="fill:#2693D5;" d="M400.142,326.386l3.726,6.774l3.726,6.774l-15.895,8.742l-15.894,8.742
					l-3.726-6.774l-3.726-6.774c-2.414-4.389-2.821-9.341-1.526-13.8c1.294-4.458,4.289-8.423,8.679-10.837
					c0.851-0.468,1.724-0.861,2.61-1.18c0.886-0.319,1.786-0.565,2.693-0.74c1.427-0.276,2.87-0.376,4.296-0.308
					c1.426,0.068,2.837,0.305,4.201,0.701c2.229,0.648,4.334,1.72,6.185,3.18C397.34,322.346,398.934,324.192,400.142,326.386z"/>
				<path id="XMLID_2542_" style="fill:#F44755;" d="M400.142,326.386l6.723,12.224l6.723,12.224
					c1.946,3.538,2.587,7.441,2.085,11.156c-0.502,3.715-2.148,7.243-4.776,10.03c-3.761,0.727-7.622,0.228-11.029-1.337
					c-3.407-1.565-6.36-4.197-8.305-7.735l-6.723-12.224l-6.723-12.224c-1.946-3.538-2.587-7.441-2.085-11.156
					c0.502-3.715,2.148-7.243,4.776-10.03c1.427-0.276,2.87-0.376,4.296-0.308c1.426,0.068,2.837,0.305,4.201,0.701
					c2.229,0.648,4.334,1.72,6.185,3.18C397.34,322.346,398.934,324.192,400.142,326.386z"/>
				<path id="XMLID_2541_" style="fill:#2D9DF6;" d="M400.142,326.386c-1.207-2.195-2.802-4.04-4.652-5.5
					c-1.85-1.459-3.956-2.532-6.185-3.18c-1.364-0.396-2.774-0.632-4.201-0.701c-1.427-0.068-2.869,0.032-4.296,0.308
					c-2.628,2.787-4.274,6.315-4.776,10.03c-0.502,3.715,0.139,7.619,2.085,11.156l3.726,6.774l3.726,6.774l5.506-3.029l5.506-3.029
					l-2.576-4.683l-2.576-4.683c-0.612-1.113-0.715-2.369-0.387-3.499s1.088-2.136,2.201-2.748c1.113-0.612,2.369-0.715,3.499-0.387
					c1.131,0.328,2.136,1.088,2.748,2.201l2.576,4.683l2.576,4.683l1.476-0.812l1.476-0.812l-3.726-6.774L400.142,326.386z"/>
				<path id="XMLID_2540_" style="fill:#F47A80;" d="M401.733,355.359c0.612,1.113,1.617,1.872,2.748,2.201
					c1.131,0.328,2.386,0.225,3.499-0.387c1.113-0.612,1.872-1.617,2.201-2.748c0.328-1.13,0.225-2.386-0.387-3.499l-2.576-4.683
					l-2.576-4.683l-4.03,2.217l-4.03,2.217l2.576,4.683L401.733,355.359z"/>
				<path id="XMLID_2539_" style="fill:#62BFF4;" d="M393.243,330.379c-1.113,0.612-1.872,1.617-2.201,2.748
					s-0.225,2.386,0.387,3.499l2.576,4.683l2.576,4.683l4.03-2.217l4.03-2.217l-2.576-4.683l-2.576-4.683
					c-0.612-1.113-1.617-1.872-2.748-2.201C395.612,329.664,394.356,329.767,393.243,330.379z"/>
			</g>
		</g>
	</g>
</g>
</svg>
