<?xml version="1.0" encoding="utf-8"?>
<!-- Generator: Adobe Illustrator 24.0.0, SVG Export Plug-In . SVG Version: 6.00 Build 0)  -->
<svg version="1.1" xmlns="http://www.w3.org/2000/svg" xmlns:xlink="http://www.w3.org/1999/xlink" x="0px" y="0px"
	 viewBox="0 0 256 256" style="enable-background:new 0 0 256 256;" xml:space="preserve">
<style type="text/css">
	.st0{fill:#F98FA6;}
	.st1{fill:#FC657E;}
	.st2{fill:#DAE6F1;}
	.st3{fill:#5290DB;}
	.st4{fill:#FCDD86;}
	.st5{fill:#F5C84C;}
	.st6{fill:#87D147;}
	.st7{fill:#70D6F9;}
	.st8{fill:#EDF4FC;}
	.st9{fill:#9BE5F9;}
	.st10{fill:#B2E26D;}
	.st11{fill:#F9C1A8;}
	.st12{fill:#414344;}
	.st13{fill:#E1FBFF;}
	.st14{fill:#FFE3EC;}
	.st15{fill:#FCBECF;}
	.st16{fill:#EF4460;}
	.st17{fill:#80C2F9;}
	.st18{fill:#3A70BF;}
	.st19{fill:#FCA265;}
	.st20{fill:#5B5D60;}
	.st21{fill:#818182;}
	.st22{fill:#C7D7E5;}
	.st23{fill:#F9D0B4;}
	.st24{fill:#AA6F59;}
	.st25{fill:#D1856D;}
	.st26{fill:#FCC29A;}
	.st27{fill:#29589F;}
	.st28{fill:#F7B386;}
	.st29{fill:#FC8C48;}
	.st30{fill:#FFF0CC;}
	.st31{fill:#57AF12;}
	.st32{fill:#3CAADC;}
	.st33{fill:#EDB311;}
	.st34{fill:#231F20;}
</style>
<g id="Layer_1">
	<g>
		<g>
			<g>
				<circle class="st0" cx="213.89" cy="221.712" r="15.405"/>
			</g>
		</g>
		<g>
			<g>
				
					<ellipse transform="matrix(0.3827 -0.9239 0.9239 0.3827 -9.7117 314.426)" class="st0" cx="230.43" cy="164.48" rx="15.405" ry="15.405"/>
			</g>
		</g>
		<g>
			<g>
				<path class="st1" d="M213.89,184.543c-8.508,0-15.405,6.897-15.405,15.405c0,4.249,1.72,8.095,4.502,10.882
					c0.004-0.004,0.006-0.007,0.01-0.011c6.016-6.016,15.77-6.016,21.786,0c0.004,0.004,0.006,0.007,0.01,0.011
					c2.782-2.787,4.502-6.633,4.502-10.882C229.295,191.44,222.398,184.543,213.89,184.543z"/>
			</g>
		</g>
		<g>
			<g>
				<path class="st2" d="M229.819,123.884l-16.767-16.767c-3.695-3.695-9.685-3.695-13.38,0c-3.695,3.695-3.695,9.685,0,13.38
					l16.767,16.767c3.695,3.695,9.685,3.695,13.38,0C233.513,133.569,233.513,127.579,229.819,123.884z"/>
			</g>
		</g>
		<g>
			<g>
				<path class="st2" d="M203.542,152.163c-3.695-3.695-9.685-3.695-13.38,0l-16.767,16.767c-3.695,3.695-3.695,9.685,0,13.38
					c3.695,3.695,9.685,3.695,13.38,0l16.767-16.767C207.237,161.849,207.237,155.858,203.542,152.163z"/>
			</g>
		</g>
		<g>
			<g>
				<path class="st1" d="M215.025,164.48c0,8.508,6.897,15.405,15.405,15.405v-30.81
					C221.922,149.075,215.025,155.972,215.025,164.48z"/>
			</g>
		</g>
		<g>
			<g>
				<path class="st0" d="M198.485,199.948c0,4.249,1.72,8.095,4.502,10.882c0.004-0.004,0.006-0.007,0.01-0.011
					c3.008-3.008,6.951-4.512,10.893-4.512v-21.764C205.382,184.543,198.485,191.44,198.485,199.948z"/>
			</g>
		</g>
		<g>
			<g>
				<path class="st1" d="M229.819,123.884l-8.383-8.383l-13.38,13.38l8.383,8.383c3.695,3.695,9.686,3.695,13.38,0
					C233.513,133.569,233.513,127.579,229.819,123.884z"/>
			</g>
		</g>
		<g>
			<g>
				<path class="st1" d="M181.778,160.547l-8.383,8.383c-3.695,3.695-3.695,9.686,0,13.38c3.695,3.695,9.685,3.695,13.38,0
					l8.383-8.383L181.778,160.547z"/>
			</g>
		</g>
		<g>
			<g>
				<path class="st1" d="M202.997,210.819c-6.016,6.016-6.016,15.77,0,21.786c6.016,6.016,15.77,6.016,21.786,0L202.997,210.819z"/>
			</g>
		</g>
		<g>
			<g>
				<path class="st3" d="M189.535,152.79V46.989c0-5.583-4.527-10.11-10.11-10.11h-41.887v2.585c0,2.237-1.814,4.052-4.052,4.052
					H90.77c-2.238,0-4.052-1.814-4.052-4.052v-2.585H44.831c-5.583,0-10.11,4.527-10.11,10.11V243.39
					c0,5.583,4.527,10.11,10.11,10.11h134.594c5.583,0,10.11-4.527,10.11-10.11V179.55l-2.76,2.76c-3.695,3.695-9.685,3.695-13.38,0
					c-3.695-3.695-3.695-9.685,0-13.38L189.535,152.79z"/>
			</g>
		</g>
		<g>
			<g>
				<path class="st2" d="M179.424,162.9V57.997c0-1.613-1.307-2.92-2.92-2.92H47.752c-1.613,0-2.92,1.307-2.92,2.92V240.47
					c0,1.613,1.307,2.92,2.92,2.92h128.752c1.613,0,2.92-1.307,2.92-2.92v-55.42c-2.197-0.153-4.35-1.06-6.029-2.74
					c-3.695-3.695-3.695-9.685,0-13.38L179.424,162.9z"/>
			</g>
		</g>
		<g>
			<g>
				<path class="st4" d="M133.486,29.752H90.77c-2.238,0-4.052,1.814-4.052,4.051v5.661c0,2.237,1.814,4.051,4.052,4.051h42.715
					c2.238,0,4.052-1.814,4.052-4.051v-5.661C137.537,31.566,135.723,29.752,133.486,29.752z"/>
			</g>
		</g>
		<g>
			<g>
				<path class="st5" d="M112.128,15.555c-5.752,0-10.414,4.663-10.414,10.414v3.783h20.828v-3.783
					C122.542,20.217,117.88,15.555,112.128,15.555z"/>
			</g>
		</g>
		<g>
			<g>
				<path d="M131.464,41.688c-1.381,0-2.5,1.119-2.5,2.5v14.089c0,1.46-1.188,2.649-2.649,2.649H97.941
					c-1.46,0-2.649-1.188-2.649-2.649V44.104c0-1.381-1.119-2.5-2.5-2.5s-2.5,1.119-2.5,2.5v14.173c0,4.218,3.431,7.649,7.649,7.649
					h28.374c4.218,0,7.649-3.431,7.649-7.649V44.188C133.964,42.807,132.845,41.688,131.464,41.688z"/>
			</g>
		</g>
		<g>
			<g>
				<path d="M179.425,34.379h-41.144c-1.381,0-2.5,1.119-2.5,2.5s1.119,2.5,2.5,2.5h41.144c4.196,0,7.61,3.414,7.61,7.61v105.074
					c0,1.381,1.119,2.5,2.5,2.5s2.5-1.119,2.5-2.5V46.989C192.035,40.036,186.378,34.379,179.425,34.379z"/>
			</g>
		</g>
		<g>
			<g>
				<path d="M189.535,178.083c-1.381,0-2.5,1.119-2.5,2.5v62.807c0,4.196-3.414,7.61-7.61,7.61H44.831
					c-4.196,0-7.61-3.414-7.61-7.61V46.989c0-4.196,3.414-7.61,7.61-7.61h41.2c1.381,0,2.5-1.119,2.5-2.5s-1.119-2.5-2.5-2.5h-41.2
					c-6.953,0-12.61,5.657-12.61,12.61V243.39c0,6.954,5.657,12.61,12.61,12.61h134.594c6.953,0,12.61-5.657,12.61-12.61v-62.807
					C192.035,179.202,190.916,178.083,189.535,178.083z"/>
			</g>
		</g>
		<g>
			<g>
				<path d="M142.628,78h-61c-1.381,0-2.5,1.119-2.5,2.5s1.119,2.5,2.5,2.5h61c1.381,0,2.5-1.119,2.5-2.5S144.009,78,142.628,78z"/>
			</g>
		</g>
		<g>
			<g>
				<path d="M159.567,104.856H79.261c-1.381,0-2.5,1.119-2.5,2.5s1.119,2.5,2.5,2.5h80.307c1.381,0,2.5-1.119,2.5-2.5
					S160.948,104.856,159.567,104.856z"/>
			</g>
		</g>
		<g>
			<g>
				<path d="M159.567,118.642H79.261c-1.381,0-2.5,1.119-2.5,2.5s1.119,2.5,2.5,2.5h80.307c1.381,0,2.5-1.119,2.5-2.5
					S160.948,118.642,159.567,118.642z"/>
			</g>
		</g>
		<g>
			<g>
				<path d="M159.567,132.428H79.261c-1.381,0-2.5,1.119-2.5,2.5s1.119,2.5,2.5,2.5h80.307c1.381,0,2.5-1.119,2.5-2.5
					S160.948,132.428,159.567,132.428z"/>
			</g>
		</g>
		<g>
			<g>
				<path d="M159.567,146.214H79.261c-1.381,0-2.5,1.119-2.5,2.5s1.119,2.5,2.5,2.5h80.307c1.381,0,2.5-1.119,2.5-2.5
					S160.948,146.214,159.567,146.214z"/>
			</g>
		</g>
		<g>
			<g>
				<path d="M159.567,160H79.261c-1.381,0-2.5,1.119-2.5,2.5s1.119,2.5,2.5,2.5h80.307c1.381,0,2.5-1.119,2.5-2.5
					S160.948,160,159.567,160z"/>
			</g>
		</g>
		<g>
			<g>
				<path d="M159.567,173.786H79.261c-1.381,0-2.5,1.119-2.5,2.5s1.119,2.5,2.5,2.5h80.307c1.381,0,2.5-1.119,2.5-2.5
					S160.948,173.786,159.567,173.786z"/>
			</g>
		</g>
		<g>
			<g>
				<path d="M159.567,187.572H79.261c-1.381,0-2.5,1.119-2.5,2.5s1.119,2.5,2.5,2.5h80.307c1.381,0,2.5-1.119,2.5-2.5
					S160.948,187.572,159.567,187.572z"/>
			</g>
		</g>
		<g>
			<g>
				<path d="M159.567,201.358H79.261c-1.381,0-2.5,1.119-2.5,2.5s1.119,2.5,2.5,2.5h80.307c1.381,0,2.5-1.119,2.5-2.5
					S160.948,201.358,159.567,201.358z"/>
			</g>
		</g>
		<g>
			<g>
				<path d="M159.567,215.144H79.261c-1.381,0-2.5,1.119-2.5,2.5s1.119,2.5,2.5,2.5h80.307c1.381,0,2.5-1.119,2.5-2.5
					S160.948,215.144,159.567,215.144z"/>
			</g>
		</g>
		<g>
			<g>
				<path d="M68.063,104.856h-2.442c-1.381,0-2.5,1.119-2.5,2.5s1.119,2.5,2.5,2.5h2.442c1.381,0,2.5-1.119,2.5-2.5
					S69.444,104.856,68.063,104.856z"/>
			</g>
		</g>
		<g>
			<g>
				<path d="M68.063,118.642h-2.442c-1.381,0-2.5,1.119-2.5,2.5s1.119,2.5,2.5,2.5h2.442c1.381,0,2.5-1.119,2.5-2.5
					S69.444,118.642,68.063,118.642z"/>
			</g>
		</g>
		<g>
			<g>
				<path d="M68.063,132.428h-2.442c-1.381,0-2.5,1.119-2.5,2.5s1.119,2.5,2.5,2.5h2.442c1.381,0,2.5-1.119,2.5-2.5
					S69.444,132.428,68.063,132.428z"/>
			</g>
		</g>
		<g>
			<g>
				<path d="M68.063,146.214h-2.442c-1.381,0-2.5,1.119-2.5,2.5s1.119,2.5,2.5,2.5h2.442c1.381,0,2.5-1.119,2.5-2.5
					S69.444,146.214,68.063,146.214z"/>
			</g>
		</g>
		<g>
			<g>
				<path d="M68.063,160h-2.442c-1.381,0-2.5,1.119-2.5,2.5s1.119,2.5,2.5,2.5h2.442c1.381,0,2.5-1.119,2.5-2.5
					S69.444,160,68.063,160z"/>
			</g>
		</g>
		<g>
			<g>
				<path d="M68.063,173.786h-2.442c-1.381,0-2.5,1.119-2.5,2.5s1.119,2.5,2.5,2.5h2.442c1.381,0,2.5-1.119,2.5-2.5
					S69.444,173.786,68.063,173.786z"/>
			</g>
		</g>
		<g>
			<g>
				<path d="M68.063,187.572h-2.442c-1.381,0-2.5,1.119-2.5,2.5s1.119,2.5,2.5,2.5h2.442c1.381,0,2.5-1.119,2.5-2.5
					S69.444,187.572,68.063,187.572z"/>
			</g>
		</g>
		<g>
			<g>
				<path d="M68.063,201.358h-2.442c-1.381,0-2.5,1.119-2.5,2.5s1.119,2.5,2.5,2.5h2.442c1.381,0,2.5-1.119,2.5-2.5
					S69.444,201.358,68.063,201.358z"/>
			</g>
		</g>
		<g>
			<g>
				<path d="M68.063,215.144h-2.442c-1.381,0-2.5,1.119-2.5,2.5s1.119,2.5,2.5,2.5h2.442c1.381,0,2.5-1.119,2.5-2.5
					S69.444,215.144,68.063,215.144z"/>
			</g>
		</g>
		<g>
			<g>
				<g>
					<path d="M226.551,209.052c-6.98-6.981-18.341-6.981-25.321,0c-6.981,6.981-6.981,18.34,0,25.321
						c3.49,3.491,8.076,5.236,12.661,5.236s9.17-1.746,12.661-5.236C233.532,227.392,233.532,216.033,226.551,209.052z
						 M223.016,230.838c-2.438,2.438-5.678,3.78-9.125,3.78s-6.688-1.342-9.125-3.78s-3.78-5.678-3.78-9.125s1.342-6.688,3.78-9.125
						s5.678-3.78,9.125-3.78s6.688,1.342,9.125,3.78s3.78,5.678,3.78,9.125S225.453,228.4,223.016,230.838z"/>
				</g>
			</g>
		</g>
		<g>
			<g>
				<g>
					<path d="M230.43,146.575c-9.873,0-17.905,8.032-17.905,17.905c0,9.873,8.032,17.905,17.905,17.905
						c9.873,0,17.905-8.032,17.905-17.905C248.335,154.607,240.303,146.575,230.43,146.575z M230.43,177.385
						c-7.116,0-12.905-5.789-12.905-12.905c0-7.116,5.789-12.905,12.905-12.905c7.116,0,12.905,5.789,12.905,12.905
						C243.335,171.596,237.546,177.385,230.43,177.385z"/>
				</g>
			</g>
		</g>
		<g>
			<g>
				<path d="M213.89,182.043c-9.873,0-17.905,8.032-17.905,17.905c0,4.437,1.636,8.694,4.605,11.987
					c0.925,1.025,2.506,1.107,3.531,0.182c1.025-0.925,1.107-2.505,0.182-3.531c-2.14-2.373-3.318-5.441-3.318-8.639
					c0-7.116,5.789-12.905,12.905-12.905c7.116,0,12.905,5.789,12.905,12.905c0,3.219-1.192,6.302-3.357,8.681
					c-0.929,1.021-0.854,2.603,0.167,3.532c0.479,0.436,1.082,0.651,1.682,0.651c0.68,0,1.357-0.275,1.85-0.817
					c3.004-3.302,4.659-7.58,4.659-12.046C231.795,190.075,223.763,182.043,213.89,182.043z"/>
			</g>
		</g>
		<g>
			<g>
				<g>
					<path d="M231.586,122.116l-16.767-16.767c-4.663-4.664-12.251-4.663-16.915,0c-2.26,2.259-3.504,5.263-3.504,8.458
						c0,3.195,1.244,6.199,3.504,8.458l16.767,16.767c2.332,2.332,5.394,3.498,8.458,3.498c3.063,0,6.126-1.167,8.458-3.498
						c2.26-2.259,3.504-5.263,3.504-8.458C235.09,127.379,233.846,124.375,231.586,122.116z M228.051,135.497
						c-2.715,2.714-7.13,2.714-9.845,0l-16.767-16.767c-1.315-1.314-2.039-3.063-2.039-4.922c0-1.86,0.724-3.608,2.039-4.923
						c1.357-1.357,3.14-2.035,4.922-2.035s3.565,0.678,4.922,2.035l16.767,16.767c1.315,1.314,2.039,3.063,2.039,4.922
						C230.09,132.434,229.366,134.182,228.051,135.497z"/>
				</g>
			</g>
		</g>
		<g>
			<g>
				<g>
					<path d="M205.31,150.396c-4.663-4.664-12.252-4.665-16.916,0l-16.767,16.767c-4.664,4.664-4.664,12.252,0,16.916
						c2.332,2.332,5.395,3.498,8.458,3.498c3.063,0,6.126-1.166,8.458-3.498l16.767-16.767
						C209.974,162.647,209.974,155.059,205.31,150.396z M201.774,163.776l-16.767,16.767c-2.715,2.714-7.131,2.713-9.845,0
						c-2.714-2.714-2.714-7.131,0-9.845l16.767-16.767c1.357-1.357,3.14-2.036,4.922-2.036c1.783,0,3.565,0.679,4.923,2.036
						C204.488,156.645,204.488,161.062,201.774,163.776z"/>
				</g>
			</g>
		</g>
		<g>
			<g>
				<path class="st5" d="M151.983,8.882c-4.498-0.838-8.043-4.31-8.898-8.716c-0.043-0.221-0.352-0.221-0.395,0
					c-0.855,4.406-4.4,7.879-8.898,8.716c-0.226,0.042-0.226,0.345,0,0.387c4.498,0.838,8.043,4.31,8.898,8.717
					c0.043,0.221,0.352,0.221,0.395,0c0.855-4.406,4.4-7.879,8.898-8.717C152.209,9.227,152.209,8.925,151.983,8.882z"/>
			</g>
		</g>
		<g>
			<g>
				<path class="st6" d="M21.978,146.925c-3.507-0.653-6.27-3.36-6.937-6.796c-0.034-0.173-0.274-0.173-0.308,0
					c-0.667,3.435-3.43,6.143-6.937,6.796c-0.176,0.033-0.176,0.269,0,0.302c3.507,0.653,6.27,3.361,6.937,6.796
					c0.034,0.173,0.274,0.173,0.308,0c0.667-3.435,3.43-6.143,6.937-6.796C22.155,147.194,22.155,146.958,21.978,146.925z"/>
			</g>
		</g>
		<g>
			<g>
				<path class="st7" d="M220.694,70.487h-2.329v-2.33c0-1.744-1.413-3.157-3.157-3.157c-1.744,0-3.157,1.413-3.157,3.157v2.33
					h-2.33c-1.744,0-3.157,1.413-3.157,3.157s1.413,3.157,3.157,3.157h2.33v2.33c0,1.744,1.413,3.157,3.157,3.157
					c1.744,0,3.157-1.413,3.157-3.157v-2.33h2.329c1.744,0,3.157-1.413,3.157-3.157S222.438,70.487,220.694,70.487z"/>
			</g>
		</g>
		<g>
			<g>
				<circle class="st1" cx="228.999" cy="96.623" r="3.377"/>
			</g>
		</g>
		<g>
			<g>
				<circle class="st5" cx="19.999" cy="167.623" r="3.377"/>
			</g>
		</g>
		<g>
			<g>
				<path d="M179.424,164.813c1.381,0,2.5-1.119,2.5-2.5V57.997c0-2.989-2.431-5.42-5.42-5.42H47.752c-2.989,0-5.42,2.432-5.42,5.42
					V240.47c0,2.989,2.432,5.42,5.42,5.42h128.752c2.989,0,5.42-2.431,5.42-5.42v-54.803c0-1.381-1.119-2.5-2.5-2.5
					s-2.5,1.119-2.5,2.5v54.803c0,0.231-0.188,0.42-0.42,0.42H47.752c-0.232,0-0.42-0.188-0.42-0.42V57.997
					c0-0.232,0.188-0.42,0.42-0.42h128.752c0.231,0,0.42,0.188,0.42,0.42v104.316C176.924,163.694,178.043,164.813,179.424,164.813z
					"/>
			</g>
		</g>
		<g>
			<g>
				<g>
					<path d="M133.486,27.252H90.77c-3.612,0-6.551,2.939-6.551,6.551v5.661c0,3.613,2.939,6.552,6.551,6.552h42.716
						c3.612,0,6.551-2.939,6.551-6.552v-5.661C140.037,30.191,137.098,27.252,133.486,27.252z M135.037,39.464
						c0,0.855-0.696,1.552-1.551,1.552H90.77c-0.855,0-1.551-0.696-1.551-1.552v-5.661c0-0.855,0.696-1.551,1.551-1.551h42.716
						c0.855,0,1.551,0.696,1.551,1.551V39.464z"/>
				</g>
			</g>
		</g>
		<g>
			<g>
				<path d="M112.128,13.055c-7.121,0-12.915,5.793-12.915,12.915v2.655c0,1.381,1.119,2.5,2.5,2.5s2.5-1.119,2.5-2.5V25.97
					c0-4.364,3.55-7.915,7.915-7.915c4.364,0,7.914,3.55,7.914,7.914v2.937c0,1.381,1.119,2.5,2.5,2.5s2.5-1.119,2.5-2.5v-2.937
					C125.042,18.849,119.249,13.055,112.128,13.055z"/>
			</g>
		</g>
		<g>
			<g>
				<path d="M230.43,147.25c-1.381,0-2.5,1.119-2.5,2.5v29.604c0,1.381,1.119,2.5,2.5,2.5s2.5-1.119,2.5-2.5V149.75
					C232.93,148.369,231.811,147.25,230.43,147.25z"/>
			</g>
		</g>
		<g>
			<g>
				<path d="M213.89,182.813c-1.381,0-2.5,1.119-2.5,2.5v20.375c0,1.381,1.119,2.5,2.5,2.5s2.5-1.119,2.5-2.5v-20.375
					C216.39,183.932,215.271,182.813,213.89,182.813z"/>
			</g>
		</g>
		<g>
			<g>
				<path d="M222.569,114.367c-0.976-0.977-2.56-0.977-3.535,0l-12.229,12.229c-0.977,0.976-0.977,2.559,0,3.535
					c0.488,0.488,1.128,0.732,1.768,0.732s1.28-0.244,1.768-0.732l12.229-12.229C223.545,116.926,223.545,115.343,222.569,114.367z"
					/>
			</g>
		</g>
		<g>
			<g>
				<path d="M196.338,171.571l-12.243-12.243c-0.976-0.977-2.56-0.977-3.535,0c-0.977,0.976-0.977,2.559,0,3.535l12.243,12.243
					c0.488,0.488,1.128,0.732,1.768,0.732s1.28-0.244,1.768-0.732C197.315,174.13,197.315,172.547,196.338,171.571z"/>
			</g>
		</g>
		<g>
			<g>
				<path d="M226.044,230.332l-20.439-20.439c-0.976-0.977-2.56-0.977-3.535,0c-0.977,0.976-0.977,2.559,0,3.535l20.439,20.439
					c0.488,0.488,1.128,0.732,1.768,0.732s1.28-0.244,1.768-0.732C227.021,232.891,227.021,231.308,226.044,230.332z"/>
			</g>
		</g>
	</g>
</g>
<g id="Layer_2">
</g>
<g id="Layer_3">
</g>
<g id="Layer_4">
</g>
<g id="Layer_5">
</g>
<g id="Layer_6">
</g>
<g id="Layer_7">
</g>
<g id="Layer_8">
</g>
<g id="Layer_9">
</g>
<g id="Layer_10">
</g>
<g id="Layer_11">
</g>
<g id="Layer_12">
</g>
<g id="Layer_13">
</g>
<g id="Layer_14">
</g>
<g id="Layer_15">
</g>
<g id="Layer_16">
</g>
<g id="Layer_17">
</g>
<g id="Layer_18">
</g>
<g id="Layer_19">
</g>
<g id="Layer_20">
</g>
<g id="Layer_21">
</g>
<g id="Layer_22">
</g>
<g id="Layer_23">
</g>
<g id="Layer_24">
</g>
<g id="Layer_25">
</g>
<g id="Layer_26">
</g>
<g id="Layer_27">
</g>
<g id="Layer_28">
</g>
<g id="Layer_29">
</g>
<g id="Layer_30">
</g>
<g id="Layer_31">
</g>
<g id="Layer_32">
</g>
<g id="Layer_33">
</g>
<g id="Layer_34">
</g>
<g id="Layer_35">
</g>
<g id="Layer_36">
</g>
<g id="Layer_37">
</g>
<g id="Layer_38">
</g>
<g id="Layer_39">
</g>
<g id="Layer_40">
</g>
<g id="Layer_41">
</g>
<g id="Layer_42">
</g>
<g id="Layer_43">
</g>
<g id="Layer_44">
</g>
<g id="Layer_45">
</g>
<g id="Layer_46">
</g>
<g id="Layer_47">
</g>
<g id="Layer_48">
</g>
<g id="Layer_49">
</g>
<g id="Layer_50">
</g>
<g id="Layer_51">
</g>
<g id="Layer_52">
</g>
<g id="Layer_53">
</g>
<g id="Layer_54">
</g>
<g id="Layer_55">
</g>
<g id="Layer_56">
</g>
<g id="Layer_57">
</g>
<g id="Layer_58">
</g>
<g id="Layer_59">
</g>
<g id="Layer_60">
</g>
<g id="Layer_61">
</g>
<g id="Layer_62">
</g>
<g id="Layer_63">
</g>
<g id="Layer_64">
</g>
<g id="Layer_65">
</g>
<g id="Layer_66">
</g>
<g id="Layer_67">
</g>
<g id="Layer_68">
</g>
<g id="Layer_69">
</g>
<g id="Layer_70">
</g>
<g id="Layer_71">
</g>
<g id="Layer_72">
</g>
<g id="Layer_73">
</g>
<g id="Layer_74">
</g>
<g id="Layer_75">
</g>
<g id="Layer_76">
</g>
<g id="Layer_77">
</g>
<g id="Layer_78">
</g>
<g id="Layer_79">
</g>
<g id="Layer_80">
</g>
<g id="Layer_81">
</g>
<g id="Layer_82">
</g>
<g id="Layer_83">
</g>
<g id="Layer_84">
</g>
<g id="Layer_85">
</g>
</svg>
