<?xml version="1.0" encoding="iso-8859-1"?>
<!-- Generator: Adobe Illustrator 22.0.1, SVG Export Plug-In . SVG Version: 6.00 Build 0)  -->
<svg version="1.1"
    id="Icons"
    xmlns="http://www.w3.org/2000/svg"
    x="0px"
    y="0px"
    viewBox="0 0 512 512"
    style="enable-background:new 0 0 512 512;"
    xml:space="preserve">
<g>
	<path id="XMLID_2276_" style="fill:#29A4FC;" d="M512,255.904c0,70.692-28.654,134.692-74.981,181.019S326.692,511.904,256,511.904
		S121.308,483.25,74.981,436.924S0,326.597,0,255.904S28.654,121.212,74.981,74.885S185.308-0.096,256-0.096
		s134.692,28.654,181.019,74.981S512,185.212,512,255.904z"/>
	<g id="XMLID_2277_">
		<g id="XMLID_2375_">
			<path id="XMLID_2384_" style="fill:#E8BC42;" d="M333.603,183.925v52.932v52.932c0,9.008-3.649,17.161-9.55,23.062
				c-5.901,5.901-14.054,9.55-23.062,9.55h-36.385h-36.385c-9.008,0-17.165-3.649-23.07-9.55s-9.558-14.054-9.558-23.062v-52.932
				v-52.932c0-7.268,2.786-13.887,7.349-18.845c4.562-4.958,10.9-8.254,18.003-8.877c0.413-0.045,0.825-0.075,1.239-0.094
				c0.414-0.019,0.831-0.026,1.251-0.026h41.163h41.163c0.42,0,0.84,0.011,1.258,0.032c0.418,0.021,0.834,0.051,1.247,0.088
				c7.111,0.63,13.445,3.927,18.001,8.883C330.824,170.042,333.603,176.657,333.603,183.925z"/>
			<polygon id="XMLID_2383_" style="fill:#DCAF43;" points="308.371,138.952 308.371,147.577 308.371,156.203 264.605,156.203 
				220.839,156.203 220.839,147.577 220.839,138.952 264.605,138.952 			"/>
			<polygon id="XMLID_2382_" style="fill:#EDC046;" points="308.371,156.083 308.371,147.517 308.371,138.952 278.121,138.952 
				247.871,138.952 247.871,147.517 247.871,156.083 247.871,156.143 247.871,156.203 247.923,156.203 247.976,156.203 
				278.121,156.203 308.266,156.203 308.318,156.203 308.371,156.203 308.371,156.143 			"/>
			<path id="XMLID_2381_" style="fill:#D7700D;" d="M333.603,109.309v9.391v9.391c0,3-1.215,5.715-3.178,7.681
				c-1.963,1.965-4.675,3.18-7.667,3.18h-58.152h-58.152c-2.993,0-5.708-1.215-7.675-3.18c-1.967-1.965-3.186-4.68-3.186-7.681
				V118.7v-9.391c0-3,1.219-5.715,3.186-7.681c1.967-1.965,4.682-3.18,7.675-3.18h58.152h58.152c2.993,0,5.704,1.215,7.667,3.18
				C332.388,103.594,333.603,106.309,333.603,109.309z"/>
			<path id="XMLID_2380_" style="fill:#FA820B;" d="M333.603,109.309v9.391v9.391c0,3-1.215,5.715-3.178,7.681
				c-1.963,1.965-4.675,3.18-7.667,3.18h-36.88h-36.88c-3,0-5.715-1.215-7.681-3.18c-1.965-1.965-3.18-4.68-3.18-7.681V118.7v-9.391
				c0-3,1.215-5.715,3.18-7.681c1.965-1.965,4.68-3.18,7.681-3.18h36.88h36.88c2.993,0,5.704,1.215,7.667,3.18
				C332.388,103.594,333.603,106.309,333.603,109.309z"/>
			<path id="XMLID_2379_" style="fill:#93D32A;" d="M222.624,289.789c0,9.008,3.653,17.161,9.558,23.062s14.062,9.55,23.07,9.55
				h22.869h22.869c9.008,0,17.161-3.649,23.062-9.55c5.901-5.901,9.55-14.054,9.55-23.062v-7.911v-7.911h-55.489h-55.489v7.911
				V289.789z"/>
			<path id="XMLID_2378_" style="fill:#FDD347;" d="M308.266,156.203h0.052h0.053v-0.06v-0.06h-1.305h-1.305h-27.647h-27.647
				c-0.42,0-0.836,0.007-1.251,0.026s-0.827,0.049-1.239,0.094c-7.103,0.623-13.441,3.919-18.003,8.877
				c-4.562,4.958-7.349,11.577-7.349,18.845v9.206v9.206h55.489h55.489v-9.206v-9.206c0-7.268-2.779-13.884-7.336-18.84
				C321.711,160.13,315.376,156.833,308.266,156.203z"/>
			<polygon id="XMLID_2377_" style="fill:#D7D7D7;" points="195.592,202.337 195.592,238.152 195.592,273.967 209.108,273.967 
				222.624,273.967 222.624,238.152 222.624,202.337 209.108,202.337 			"/>
			<polygon id="XMLID_2376_" style="fill:#FFFFFF;" points="222.624,273.967 278.113,273.967 333.603,273.967 333.603,238.152 
				333.603,202.337 278.113,202.337 222.624,202.337 222.624,238.152 			"/>
		</g>
		<path id="XMLID_2374_" style="fill:#2DA1FA;" d="M236.66,289.505L236.66,289.505L236.66,289.505
			c-2.072-2.485-2.941-5.575-2.67-8.561s1.681-5.87,4.166-7.942l9.013-7.515l9.013-7.515c2.485-2.072,5.575-2.941,8.561-2.67
			c2.987,0.271,5.87,1.681,7.942,4.166l0,0h0c2.072,2.485,2.941,5.575,2.67,8.561c-0.271,2.987-1.681,5.87-4.166,7.942l-9.013,7.515
			L253.163,291c-2.485,2.072-5.575,2.941-8.561,2.67S238.732,291.99,236.66,289.505z"/>
		<path id="XMLID_2515_" style="fill:#245073;" d="M506.26,310.034c-12.415,57.695-44.278,108.163-88.388,144.206
			S317.405,511.904,256,511.904s-117.763-21.62-161.872-57.664S18.155,367.729,5.74,310.034H256H506.26z"/>
		<g id="XMLID_2361_">
			<path id="XMLID_2372_" style="fill:#E3740D;" d="M475.298,104.795v100.11v100.11c0,4.651-1.885,8.863-4.934,11.911
				c-3.048,3.048-7.259,4.934-11.911,4.934h-51.4h-51.4V213.327V104.795h59.823H475.298z"/>
			<polygon id="XMLID_2371_" style="fill:#FC840A;" points="393.899,104.795 393.899,135.585 393.899,166.375 434.598,166.375 
				475.298,166.375 475.298,135.585 475.298,104.795 434.598,104.795 			"/>
			<path id="XMLID_2370_" style="fill:#FC840A;" d="M393.899,321.859h32.277h32.277c4.651,0,8.863-1.885,11.911-4.934
				c3.048-3.048,4.934-7.259,4.934-11.911v-30.43v-30.43h-40.699h-40.699v38.852V321.859z"/>
			<polygon id="XMLID_2369_" style="fill:#D0CECD;" points="355.652,166.375 355.652,205.264 355.652,244.154 374.775,244.154 
				393.899,244.154 393.899,205.264 393.899,166.375 374.775,166.375 			"/>
			<polygon id="XMLID_2368_" style="fill:#FFFFFF;" points="393.899,244.154 434.598,244.154 475.298,244.154 475.298,205.264 
				475.298,166.375 434.598,166.375 393.899,166.375 393.899,205.264 			"/>
			<path id="XMLID_2367_" style="fill:#D0CECD;" d="M492.23,57.918v18.465v18.465c0,3.021-1.227,5.759-3.208,7.741
				c-1.982,1.982-4.719,3.208-7.741,3.208h-65.806h-65.806c-3.021,0-5.759-1.227-7.741-3.208s-3.208-4.719-3.208-7.741V76.383
				V57.918c0-3.029,1.227-5.766,3.208-7.746s4.719-3.203,7.741-3.203h65.806h65.806c3.021,0,5.759,1.223,7.741,3.203
				C491.003,52.151,492.23,54.889,492.23,57.918z"/>
			<path id="XMLID_2365_" style="fill:#FFFFFF;" d="M492.23,57.918v18.465v18.465c0,3.021-1.227,5.759-3.208,7.741
				c-1.982,1.982-4.719,3.208-7.741,3.208h-43.242h-43.242c-3.029,0-5.766-1.227-7.746-3.208s-3.203-4.719-3.203-7.741V76.383
				V57.918c0-3.029,1.223-5.766,3.203-7.746s4.717-3.203,7.746-3.203h43.242h43.242c3.021,0,5.759,1.223,7.741,3.203
				C491.003,52.151,492.23,54.889,492.23,57.918z"/>
			<path id="XMLID_2364_" style="fill:#D0CECD;" d="M422.198,105.797h-8.601h-8.601V91.284V76.77c0-1.588,0.644-3.025,1.684-4.066
				c1.041-1.041,2.478-1.684,4.066-1.684h2.851h2.851c1.588,0,3.025,0.644,4.066,1.684c1.041,1.041,1.684,2.478,1.684,4.066v14.513
				V105.797z"/>
			<path id="XMLID_2363_" style="fill:#D0CECD;" d="M449.556,105.797h-8.601h-8.601V91.284V76.77c0-1.588,0.644-3.025,1.684-4.066
				c1.041-1.041,2.478-1.684,4.066-1.684h2.851h2.851c1.588,0,3.025,0.644,4.066,1.684c1.041,1.041,1.684,2.478,1.684,4.066v14.513
				V105.797z"/>
			<path id="XMLID_2362_" style="fill:#D0CECD;" d="M476.853,105.797h-8.601h-8.601V91.284V76.77c0-1.588,0.644-3.025,1.684-4.066
				c1.041-1.041,2.478-1.684,4.066-1.684h2.851h2.851c1.588,0,3.025,0.644,4.066,1.684c1.041,1.041,1.684,2.478,1.684,4.066v14.513
				V105.797z"/>
		</g>
		<g id="XMLID_2315_">
			<path id="XMLID_2360_" style="fill:#ADD4E8;" d="M154.986,126.097l28.488,111.325l28.488,111.325
				c0.54,2.11,0.174,4.238-0.854,5.973s-2.718,3.078-4.828,3.618l-63.902,16.353l-63.902,16.353c-2.11,0.54-4.238,0.174-5.973-0.854
				c-1.735-1.028-3.078-2.718-3.618-4.828L40.399,274.036L11.911,162.71c-0.54-2.11-0.174-4.238,0.854-5.973
				s2.718-3.078,4.828-3.618l63.902-16.353l63.902-16.353c2.11-0.54,4.238-0.174,5.973,0.854
				C153.103,122.296,154.446,123.987,154.986,126.097z"/>
			<path id="XMLID_2359_" style="fill:#B8E2FD;" d="M154.986,126.097l28.488,111.325l28.488,111.325
				c0.54,2.11,0.174,4.238-0.854,5.973s-2.718,3.078-4.828,3.618l-48.63,12.444l-48.63,12.444c-2.11,0.54-4.238,0.174-5.973-0.854
				s-3.078-2.718-3.618-4.828L70.943,266.219L42.455,154.894c-0.54-2.11-0.174-4.238,0.854-5.973
				c1.028-1.735,2.718-3.078,4.828-3.618l48.63-12.444l48.63-12.444c2.11-0.54,4.238-0.174,5.973,0.854
				C153.103,122.296,154.446,123.987,154.986,126.097z"/>
			<path id="XMLID_2358_" style="fill:#9FBECC;" d="M83.561,146.516c-1.665,0.426-2.93,1.756-3.63,3.563
				c-0.7,1.806-0.835,4.089-0.238,6.42l26.26,102.618l26.26,102.618c0.596,2.331,1.811,4.268,3.293,5.516
				c1.482,1.248,3.231,1.807,4.895,1.381c1.665-0.426,2.93-1.756,3.63-3.563c0.7-1.806,0.835-4.089,0.238-6.42l-26.26-102.618
				l-26.26-102.618c-0.596-2.331-1.811-4.268-3.293-5.516C86.974,146.649,85.225,146.09,83.561,146.516z"/>
			<g id="XMLID_2351_">
				<path id="XMLID_2357_" style="fill:#B03948;" d="M51.719,169.549l10.033,5.944l10.033,5.944c2.903,1.72,5.023,4.258,6.24,7.146
					s1.53,6.127,0.822,9.249c-0.17,0.752-0.399,1.497-0.69,2.229c-0.291,0.732-0.642,1.451-1.056,2.15
					c-2.134,3.602-5.527,5.998-9.286,6.96s-7.886,0.49-11.488-1.644l-10.033-5.944l-10.033-5.944
					c-3.602-2.134-5.998-5.527-6.96-9.286c-0.962-3.759-0.49-7.886,1.644-11.488c0.414-0.699,0.875-1.352,1.378-1.958
					c0.502-0.606,1.046-1.165,1.624-1.676c0.91-0.805,1.906-1.49,2.962-2.047c1.056-0.557,2.172-0.986,3.322-1.28
					c1.879-0.48,3.851-0.602,5.803-0.338C47.986,167.83,49.918,168.482,51.719,169.549z"/>
				<path id="XMLID_2356_" style="fill:#2695D7;" d="M51.719,169.549l5.56,3.294l5.56,3.294l-7.729,13.045l-7.729,13.045
					l-5.56-3.294l-5.56-3.294c-3.602-2.134-5.998-5.527-6.96-9.286c-0.962-3.759-0.49-7.886,1.644-11.488
					c0.414-0.699,0.875-1.352,1.378-1.958c0.502-0.606,1.046-1.165,1.624-1.676c0.91-0.805,1.906-1.49,2.962-2.047
					c1.056-0.557,2.172-0.986,3.322-1.28c1.879-0.48,3.851-0.602,5.803-0.338C47.986,167.83,49.918,168.482,51.719,169.549z"/>
				<path id="XMLID_2355_" style="fill:#F74755;" d="M51.719,169.549l10.033,5.944l10.033,5.944c2.903,1.72,5.023,4.258,6.24,7.146
					s1.53,6.127,0.822,9.249c-2.399,2.121-5.39,3.402-8.507,3.722c-3.117,0.32-6.361-0.32-9.265-2.04l-10.033-5.944l-10.033-5.944
					c-2.903-1.72-5.023-4.258-6.24-7.146s-1.53-6.127-0.822-9.249c0.91-0.805,1.906-1.49,2.962-2.047
					c1.056-0.557,2.172-0.986,3.322-1.28c1.879-0.48,3.851-0.602,5.803-0.338C47.986,167.83,49.918,168.482,51.719,169.549z"/>
				<path id="XMLID_2354_" style="fill:#2D9FF8;" d="M51.719,169.549c-1.801-1.067-3.733-1.718-5.685-1.983
					c-1.952-0.265-3.923-0.142-5.803,0.338c-1.15,0.294-2.266,0.723-3.322,1.28c-1.056,0.557-2.052,1.241-2.962,2.047
					c-0.708,3.123-0.395,6.361,0.822,9.249s3.336,5.425,6.24,7.146l5.56,3.294l5.56,3.294l2.678-4.519l2.678-4.519l-3.844-2.277
					l-3.844-2.277c-0.913-0.541-1.521-1.401-1.765-2.355s-0.124-2,0.417-2.913s1.401-1.521,2.355-1.765s2-0.124,2.913,0.417
					l3.844,2.277l3.844,2.277l0.718-1.211l0.718-1.211l-5.56-3.294L51.719,169.549z"/>
				<path id="XMLID_2353_" style="fill:#F67A82;" d="M65.172,189.73c0.913,0.541,1.96,0.661,2.913,0.417s1.813-0.852,2.355-1.765
					c0.541-0.913,0.661-1.96,0.417-2.913s-0.852-1.813-1.765-2.355l-3.844-2.277l-3.844-2.277l-1.96,3.308l-1.96,3.308l3.844,2.277
					L65.172,189.73z"/>
				<path id="XMLID_2352_" style="fill:#63C1F6;" d="M48.449,175.353c-0.541,0.913-0.661,1.96-0.417,2.913s0.852,1.813,1.765,2.355
					l3.844,2.277l3.844,2.277l1.96-3.308l1.96-3.308l-3.844-2.277l-3.844-2.277c-0.913-0.541-1.96-0.661-2.913-0.417
					S48.99,174.44,48.449,175.353z"/>
			</g>
			<g id="XMLID_2344_">
				<path id="XMLID_2350_" style="fill:#B03948;" d="M127.886,150.058l10.033,5.944l10.033,5.944c2.903,1.72,5.023,4.258,6.24,7.146
					c1.217,2.888,1.53,6.127,0.822,9.249c-0.17,0.752-0.399,1.497-0.69,2.229s-0.642,1.451-1.056,2.15
					c-2.134,3.602-5.527,5.998-9.286,6.96c-3.759,0.962-7.886,0.49-11.488-1.644l-10.033-5.944l-10.033-5.944
					c-3.602-2.134-5.998-5.527-6.96-9.286c-0.962-3.759-0.49-7.886,1.644-11.488c0.414-0.699,0.875-1.352,1.378-1.958
					c0.502-0.606,1.046-1.165,1.624-1.676c0.91-0.805,1.906-1.49,2.962-2.047c1.056-0.557,2.172-0.986,3.322-1.28
					c1.879-0.48,3.851-0.602,5.803-0.338C124.152,148.339,126.085,148.99,127.886,150.058z"/>
				<path id="XMLID_2349_" style="fill:#2695D7;" d="M127.886,150.058l5.56,3.294l5.56,3.294l-7.729,13.045l-7.729,13.045
					l-5.56-3.294l-5.56-3.294c-3.602-2.134-5.998-5.527-6.96-9.286c-0.962-3.759-0.49-7.886,1.644-11.488
					c0.414-0.699,0.875-1.352,1.378-1.958c0.502-0.606,1.046-1.165,1.624-1.676c0.91-0.805,1.906-1.49,2.962-2.047
					c1.056-0.557,2.172-0.986,3.322-1.28c1.879-0.48,3.851-0.602,5.803-0.338C124.152,148.339,126.085,148.99,127.886,150.058z"/>
				<path id="XMLID_2348_" style="fill:#F74755;" d="M127.886,150.058l10.033,5.944l10.033,5.944c2.903,1.72,5.023,4.258,6.24,7.146
					c1.217,2.888,1.53,6.127,0.822,9.249c-2.399,2.121-5.39,3.402-8.507,3.722c-3.117,0.32-6.361-0.32-9.265-2.04l-10.033-5.944
					l-10.033-5.944c-2.903-1.72-5.023-4.258-6.24-7.146s-1.53-6.127-0.822-9.249c0.91-0.805,1.906-1.49,2.962-2.047
					c1.056-0.557,2.172-0.986,3.322-1.28c1.879-0.48,3.851-0.602,5.803-0.338C124.152,148.339,126.085,148.99,127.886,150.058z"/>
				<path id="XMLID_2347_" style="fill:#2D9FF8;" d="M127.886,150.058c-1.801-1.067-3.733-1.719-5.685-1.983
					c-1.952-0.265-3.923-0.142-5.803,0.338c-1.15,0.294-2.266,0.723-3.322,1.28c-1.056,0.557-2.052,1.241-2.962,2.047
					c-0.708,3.123-0.395,6.361,0.822,9.249s3.336,5.425,6.24,7.146l5.56,3.294l5.56,3.294l2.678-4.519l2.678-4.519l-3.844-2.277
					l-3.844-2.277c-0.913-0.541-1.521-1.401-1.765-2.355c-0.244-0.953-0.124-2,0.417-2.913c0.541-0.913,1.401-1.521,2.355-1.765
					c0.953-0.244,2-0.124,2.913,0.417l3.844,2.277l3.844,2.277l0.718-1.211l0.718-1.211l-5.56-3.294L127.886,150.058z"/>
				<path id="XMLID_2346_" style="fill:#F67A82;" d="M141.338,170.239c0.913,0.541,1.96,0.661,2.913,0.417s1.813-0.852,2.355-1.765
					c0.541-0.913,0.661-1.96,0.417-2.913s-0.852-1.813-1.765-2.355l-3.844-2.277l-3.844-2.277l-1.96,3.308l-1.96,3.308l3.844,2.277
					L141.338,170.239z"/>
				<path id="XMLID_2345_" style="fill:#63C1F6;" d="M124.615,155.862c-0.541,0.913-0.661,1.96-0.417,2.913
					c0.244,0.953,0.852,1.813,1.765,2.355l3.844,2.277l3.844,2.277l1.96-3.308l1.96-3.308l-3.844-2.277l-3.844-2.277
					c-0.913-0.541-1.96-0.661-2.913-0.417C126.017,154.341,125.157,154.949,124.615,155.862z"/>
			</g>
			<g id="XMLID_2337_">
				<path id="XMLID_2343_" style="fill:#B03948;" d="M71.117,245.35l10.033,5.944l10.033,5.944c2.903,1.72,5.023,4.258,6.24,7.146
					s1.53,6.127,0.822,9.249c-0.17,0.752-0.399,1.497-0.69,2.229c-0.291,0.732-0.642,1.451-1.056,2.15
					c-2.134,3.602-5.527,5.998-9.286,6.96c-3.759,0.962-7.886,0.49-11.488-1.644l-10.033-5.944l-10.033-5.944
					c-3.602-2.134-5.998-5.527-6.96-9.286s-0.49-7.886,1.644-11.488c0.414-0.699,0.875-1.352,1.378-1.958
					c0.502-0.606,1.046-1.165,1.624-1.676c0.91-0.805,1.906-1.49,2.962-2.047s2.172-0.986,3.322-1.28
					c1.879-0.48,3.851-0.602,5.803-0.338C67.384,243.631,69.316,244.283,71.117,245.35z"/>
				<path id="XMLID_2342_" style="fill:#2695D7;" d="M71.117,245.35l5.56,3.294l5.56,3.294l-7.729,13.045l-7.729,13.045l-5.56-3.294
					l-5.56-3.294c-3.602-2.134-5.998-5.527-6.96-9.286s-0.49-7.886,1.644-11.488c0.414-0.699,0.875-1.352,1.378-1.958
					c0.502-0.606,1.046-1.165,1.624-1.676c0.91-0.805,1.906-1.49,2.962-2.047s2.172-0.986,3.322-1.28
					c1.879-0.48,3.851-0.602,5.803-0.338C67.384,243.631,69.316,244.283,71.117,245.35z"/>
				<path id="XMLID_2341_" style="fill:#F74755;" d="M71.117,245.35l10.033,5.944l10.033,5.944c2.903,1.72,5.023,4.258,6.24,7.146
					s1.53,6.127,0.822,9.249c-2.399,2.121-5.39,3.402-8.507,3.722c-3.117,0.32-6.361-0.32-9.265-2.04L70.44,269.37l-10.033-5.944
					c-2.903-1.72-5.023-4.258-6.24-7.146s-1.53-6.127-0.822-9.249c0.91-0.805,1.906-1.49,2.962-2.047s2.172-0.986,3.322-1.28
					c1.879-0.48,3.851-0.602,5.803-0.338C67.384,243.631,69.316,244.283,71.117,245.35z"/>
				<path id="XMLID_2340_" style="fill:#2D9FF8;" d="M71.117,245.35c-1.801-1.067-3.733-1.719-5.685-1.983
					c-1.952-0.265-3.923-0.142-5.803,0.338c-1.15,0.294-2.266,0.723-3.322,1.28s-2.052,1.241-2.962,2.047
					c-0.708,3.123-0.395,6.361,0.822,9.249s3.336,5.425,6.24,7.146l5.56,3.294l5.56,3.294l2.678-4.519l2.678-4.519l-3.844-2.277
					l-3.844-2.277c-0.913-0.541-1.521-1.401-1.765-2.355c-0.244-0.953-0.124-2,0.417-2.913s1.401-1.521,2.355-1.765
					c0.953-0.244,2-0.124,2.913,0.417l3.844,2.277l3.844,2.277l0.718-1.211l0.718-1.211l-5.56-3.294L71.117,245.35z"/>
				<path id="XMLID_2339_" style="fill:#F67A82;" d="M84.569,265.531c0.913,0.541,1.96,0.661,2.913,0.417
					c0.953-0.244,1.813-0.852,2.355-1.765s0.661-1.96,0.417-2.913c-0.244-0.953-0.852-1.813-1.765-2.355l-3.844-2.277l-3.844-2.277
					l-1.96,3.308l-1.96,3.308l3.844,2.277L84.569,265.531z"/>
				<path id="XMLID_2338_" style="fill:#63C1F6;" d="M67.847,251.154c-0.541,0.913-0.661,1.96-0.417,2.913
					c0.244,0.953,0.852,1.813,1.765,2.355l3.844,2.277l3.844,2.277l1.96-3.308l1.96-3.308l-3.844-2.277l-3.844-2.277
					c-0.913-0.541-1.96-0.661-2.913-0.417C69.248,249.633,68.388,250.241,67.847,251.154z"/>
			</g>
			<g id="XMLID_2330_">
				<path id="XMLID_2336_" style="fill:#B03948;" d="M147.283,225.859l10.033,5.944l10.033,5.944c2.903,1.72,5.023,4.258,6.24,7.146
					s1.53,6.127,0.822,9.249c-0.17,0.752-0.399,1.497-0.69,2.229c-0.291,0.732-0.642,1.451-1.056,2.15
					c-2.134,3.602-5.527,5.998-9.286,6.96s-7.886,0.49-11.488-1.644l-10.033-5.944l-10.033-5.944
					c-3.602-2.134-5.998-5.527-6.96-9.286c-0.962-3.759-0.49-7.886,1.644-11.488c0.414-0.699,0.875-1.352,1.378-1.958
					c0.502-0.606,1.046-1.165,1.624-1.676c0.91-0.805,1.906-1.49,2.962-2.047c1.056-0.557,2.172-0.986,3.322-1.28
					c1.879-0.48,3.851-0.602,5.803-0.338S145.482,224.791,147.283,225.859z"/>
				<path id="XMLID_2335_" style="fill:#2695D7;" d="M147.283,225.859l5.56,3.294l5.56,3.294l-7.729,13.045l-7.729,13.045
					l-5.56-3.294l-5.56-3.294c-3.602-2.134-5.998-5.527-6.96-9.286c-0.962-3.759-0.49-7.886,1.644-11.488
					c0.414-0.699,0.875-1.352,1.378-1.958c0.502-0.606,1.046-1.165,1.624-1.676c0.91-0.805,1.906-1.49,2.962-2.047
					c1.056-0.557,2.172-0.986,3.322-1.28c1.879-0.48,3.851-0.602,5.803-0.338S145.482,224.791,147.283,225.859z"/>
				<path id="XMLID_2334_" style="fill:#F74755;" d="M147.283,225.859l10.033,5.944l10.033,5.944c2.903,1.72,5.023,4.258,6.24,7.146
					s1.53,6.127,0.822,9.249c-2.399,2.121-5.39,3.402-8.507,3.722c-3.117,0.32-6.361-0.32-9.265-2.04l-10.033-5.944l-10.033-5.944
					c-2.903-1.72-5.023-4.258-6.24-7.146c-1.217-2.888-1.53-6.127-0.822-9.249c0.91-0.805,1.906-1.49,2.962-2.047
					c1.056-0.557,2.172-0.986,3.322-1.28c1.879-0.48,3.851-0.602,5.803-0.338S145.482,224.791,147.283,225.859z"/>
				<path id="XMLID_2333_" style="fill:#2D9FF8;" d="M147.283,225.859c-1.801-1.067-3.733-1.719-5.685-1.983
					s-3.923-0.142-5.803,0.338c-1.15,0.294-2.266,0.723-3.322,1.28c-1.056,0.557-2.052,1.241-2.962,2.047
					c-0.708,3.123-0.395,6.361,0.822,9.249c1.217,2.888,3.336,5.425,6.24,7.146l5.56,3.294l5.56,3.294l2.678-4.519l2.678-4.519
					l-3.844-2.277l-3.844-2.277c-0.913-0.541-1.521-1.401-1.765-2.355c-0.244-0.953-0.124-2,0.417-2.913
					c0.541-0.913,1.401-1.521,2.355-1.765c0.953-0.244,2-0.124,2.913,0.417l3.844,2.277l3.844,2.277l0.718-1.211l0.718-1.211
					l-5.56-3.294L147.283,225.859z"/>
				<path id="XMLID_2332_" style="fill:#F67A82;" d="M160.736,246.04c0.913,0.541,1.96,0.661,2.913,0.417s1.813-0.852,2.355-1.765
					c0.541-0.913,0.661-1.96,0.417-2.913s-0.852-1.813-1.765-2.355l-3.844-2.277l-3.844-2.277l-1.96,3.308l-1.96,3.308l3.844,2.277
					L160.736,246.04z"/>
				<path id="XMLID_2331_" style="fill:#63C1F6;" d="M144.013,231.663c-0.541,0.913-0.661,1.96-0.417,2.913
					c0.244,0.953,0.852,1.813,1.765,2.355l3.844,2.277l3.844,2.277l1.96-3.308l1.96-3.308l-3.844-2.277l-3.844-2.277
					c-0.913-0.541-1.96-0.661-2.913-0.417C145.414,230.142,144.554,230.75,144.013,231.663z"/>
			</g>
			<g id="XMLID_2323_">
				<path id="XMLID_2329_" style="fill:#B03948;" d="M89.62,317.656l10.033,5.944l10.033,5.944c2.903,1.72,5.023,4.258,6.24,7.146
					c1.217,2.888,1.53,6.127,0.822,9.249c-0.17,0.752-0.399,1.497-0.69,2.229c-0.291,0.732-0.642,1.451-1.056,2.15
					c-2.134,3.602-5.527,5.998-9.286,6.96c-3.759,0.962-7.886,0.49-11.488-1.644l-10.033-5.944l-10.033-5.944
					c-3.602-2.134-5.998-5.527-6.96-9.286c-0.962-3.759-0.49-7.886,1.644-11.488c0.414-0.699,0.875-1.352,1.378-1.958
					c0.502-0.606,1.046-1.165,1.624-1.676c0.91-0.805,1.906-1.49,2.962-2.047c1.056-0.557,2.172-0.986,3.322-1.28
					c1.879-0.48,3.851-0.602,5.803-0.338S87.819,316.588,89.62,317.656z"/>
				<path id="XMLID_2328_" style="fill:#2695D7;" d="M89.62,317.656l5.56,3.294l5.56,3.294l-7.729,13.045l-7.729,13.045l-5.56-3.294
					l-5.56-3.294c-3.602-2.134-5.998-5.527-6.96-9.286c-0.962-3.759-0.49-7.886,1.644-11.488c0.414-0.699,0.875-1.352,1.378-1.958
					c0.502-0.606,1.046-1.165,1.624-1.676c0.91-0.805,1.906-1.49,2.962-2.047c1.056-0.557,2.172-0.986,3.322-1.28
					c1.879-0.48,3.851-0.602,5.803-0.338S87.819,316.588,89.62,317.656z"/>
				<path id="XMLID_2327_" style="fill:#F74755;" d="M89.62,317.656l10.033,5.944l10.033,5.944c2.903,1.72,5.023,4.258,6.24,7.146
					c1.217,2.888,1.53,6.127,0.822,9.249c-2.399,2.121-5.39,3.402-8.507,3.722c-3.117,0.32-6.361-0.32-9.265-2.04l-10.033-5.944
					l-10.033-5.944c-2.903-1.72-5.023-4.258-6.24-7.146c-1.217-2.888-1.53-6.127-0.822-9.249c0.91-0.805,1.906-1.49,2.962-2.047
					c1.056-0.557,2.172-0.986,3.322-1.28c1.879-0.48,3.851-0.602,5.803-0.338S87.819,316.588,89.62,317.656z"/>
				<path id="XMLID_2326_" style="fill:#2D9FF8;" d="M89.62,317.656c-1.801-1.067-3.733-1.719-5.685-1.983s-3.923-0.142-5.803,0.338
					c-1.15,0.294-2.266,0.723-3.322,1.28c-1.056,0.557-2.052,1.241-2.962,2.047c-0.708,3.123-0.395,6.361,0.822,9.249
					c1.217,2.888,3.336,5.425,6.24,7.146l5.56,3.294l5.56,3.294l2.678-4.519l2.678-4.519l-3.844-2.277l-3.844-2.277
					c-0.913-0.541-1.521-1.401-1.765-2.355c-0.244-0.953-0.124-2,0.417-2.913c0.541-0.913,1.401-1.521,2.355-1.765
					c0.953-0.244,2-0.124,2.913,0.417l3.844,2.277l3.844,2.277l0.718-1.211l0.718-1.211l-5.56-3.294L89.62,317.656z"/>
				<path id="XMLID_2325_" style="fill:#F67A82;" d="M103.072,337.837c0.913,0.541,1.96,0.661,2.913,0.417
					c0.953-0.244,1.813-0.852,2.355-1.765c0.541-0.913,0.661-1.96,0.417-2.913c-0.244-0.953-0.852-1.813-1.765-2.355l-3.844-2.277
					l-3.844-2.277l-1.96,3.308l-1.96,3.308l3.844,2.277L103.072,337.837z"/>
				<path id="XMLID_7_" style="fill:#63C1F6;" d="M86.35,323.46c-0.541,0.913-0.661,1.96-0.417,2.913
					c0.244,0.953,0.852,1.813,1.765,2.355l3.844,2.277l3.844,2.277l1.96-3.308l1.96-3.308l-3.844-2.277l-3.844-2.277
					c-0.913-0.541-1.96-0.661-2.913-0.417C87.751,321.939,86.891,322.547,86.35,323.46z"/>
			</g>
			<g id="XMLID_2316_">
				<path id="XMLID_2322_" style="fill:#B03948;" d="M165.787,298.164l10.033,5.944l10.033,5.944c2.903,1.72,5.023,4.258,6.24,7.146
					s1.53,6.127,0.822,9.249c-0.17,0.752-0.399,1.497-0.69,2.229c-0.291,0.732-0.642,1.451-1.056,2.15
					c-2.134,3.602-5.527,5.998-9.286,6.96c-3.759,0.962-7.886,0.49-11.488-1.644l-10.033-5.944l-10.033-5.944
					c-3.602-2.134-5.998-5.527-6.96-9.286c-0.962-3.759-0.49-7.886,1.644-11.488c0.414-0.699,0.875-1.352,1.378-1.958
					c0.502-0.606,1.046-1.165,1.624-1.676c0.91-0.805,1.906-1.49,2.962-2.047c1.056-0.557,2.172-0.986,3.322-1.28
					c1.879-0.48,3.851-0.602,5.803-0.338C162.053,296.446,163.986,297.097,165.787,298.164z"/>
				<path id="XMLID_2321_" style="fill:#2695D7;" d="M165.787,298.164l5.56,3.294l5.56,3.294l-7.729,13.045l-7.729,13.045
					l-5.56-3.294l-5.56-3.294c-3.602-2.134-5.998-5.527-6.96-9.286c-0.962-3.759-0.49-7.886,1.644-11.488
					c0.414-0.699,0.875-1.352,1.378-1.958c0.502-0.606,1.046-1.165,1.624-1.676c0.91-0.805,1.906-1.49,2.962-2.047
					c1.056-0.557,2.172-0.986,3.322-1.28c1.879-0.48,3.851-0.602,5.803-0.338C162.053,296.446,163.986,297.097,165.787,298.164z"/>
				<path id="XMLID_2320_" style="fill:#F74755;" d="M165.787,298.164l10.033,5.944l10.033,5.944c2.903,1.72,5.023,4.258,6.24,7.146
					s1.53,6.127,0.822,9.249c-2.399,2.121-5.39,3.402-8.507,3.722c-3.117,0.32-6.361-0.32-9.265-2.04l-10.033-5.944l-10.033-5.944
					c-2.903-1.72-5.023-4.258-6.24-7.146s-1.53-6.127-0.822-9.249c0.91-0.805,1.906-1.49,2.962-2.047
					c1.056-0.557,2.172-0.986,3.322-1.28c1.879-0.48,3.851-0.602,5.803-0.338C162.053,296.446,163.986,297.097,165.787,298.164z"/>
				<path id="XMLID_2319_" style="fill:#2D9FF8;" d="M165.787,298.164c-1.801-1.067-3.733-1.719-5.685-1.983
					c-1.952-0.265-3.923-0.142-5.803,0.338c-1.15,0.294-2.266,0.723-3.322,1.28c-1.056,0.557-2.052,1.241-2.962,2.047
					c-0.708,3.123-0.395,6.361,0.822,9.249s3.336,5.425,6.24,7.146l5.56,3.294l5.56,3.294l2.678-4.519l2.678-4.519l-3.844-2.277
					l-3.844-2.277c-0.913-0.541-1.521-1.401-1.765-2.355c-0.244-0.953-0.124-2,0.417-2.913c0.541-0.913,1.401-1.521,2.355-1.765
					c0.953-0.244,2-0.124,2.913,0.417l3.844,2.277l3.844,2.277l0.718-1.211l0.718-1.211l-5.56-3.294L165.787,298.164z"/>
				<path id="XMLID_2318_" style="fill:#F67A82;" d="M179.239,318.346c0.913,0.541,1.96,0.661,2.913,0.417
					c0.953-0.244,1.813-0.852,2.355-1.765c0.541-0.913,0.661-1.96,0.417-2.913c-0.244-0.953-0.852-1.813-1.765-2.355l-3.844-2.277
					l-3.844-2.277l-1.96,3.308l-1.96,3.308l3.844,2.277L179.239,318.346z"/>
				<path id="XMLID_2317_" style="fill:#63C1F6;" d="M162.516,303.969c-0.541,0.913-0.661,1.96-0.417,2.913
					c0.244,0.953,0.852,1.813,1.765,2.355l3.844,2.277l3.844,2.277l1.96-3.308l1.96-3.308l-3.844-2.277l-3.844-2.277
					c-0.913-0.541-1.96-0.661-2.913-0.417C163.918,302.448,163.058,303.055,162.516,303.969z"/>
			</g>
		</g>
		<g id="XMLID_2278_">
			<path id="XMLID_2314_" style="fill:#ADD4E8;" d="M170.967,245.902l99.204-2.475l99.204-2.475c1.88-0.047,3.6,0.672,4.862,1.872
				c1.262,1.2,2.065,2.883,2.112,4.763l1.421,56.944l1.421,56.944c0.047,1.88-0.672,3.6-1.872,4.862s-2.883,2.065-4.763,2.112
				l-99.204,2.475l-99.204,2.475c-1.88,0.047-3.6-0.672-4.862-1.872s-2.065-2.883-2.112-4.763l-1.421-56.944l-1.421-56.944
				c-0.047-1.88,0.672-3.6,1.872-4.862C167.405,246.752,169.087,245.949,170.967,245.902z"/>
			<path id="XMLID_2313_" style="fill:#B8E2FD;" d="M170.967,245.902l99.204-2.475l99.204-2.475c1.88-0.047,3.6,0.672,4.862,1.872
				c1.262,1.2,2.065,2.883,2.112,4.763l1.081,43.335l1.081,43.335c0.047,1.88-0.672,3.6-1.872,4.862s-2.883,2.065-4.763,2.112
				l-99.204,2.475l-99.204,2.475c-1.88,0.047-3.6-0.672-4.862-1.872c-1.262-1.2-2.065-2.883-2.112-4.763l-1.081-43.335
				l-1.081-43.335c-0.047-1.88,0.672-3.6,1.872-4.862C167.405,246.752,169.087,245.949,170.967,245.902z"/>
			<path id="XMLID_2312_" style="fill:#9FBECC;" d="M174.357,309.964c0.037,1.483,0.912,2.805,2.298,3.744
				c1.385,0.938,3.28,1.493,5.357,1.441l91.445-2.281l91.445-2.281c2.077-0.052,3.942-0.7,5.279-1.706s2.145-2.37,2.108-3.854
				c-0.037-1.483-0.912-2.805-2.298-3.744c-1.385-0.938-3.28-1.493-5.357-1.441l-91.445,2.281l-91.445,2.281
				c-2.077,0.052-3.942,0.7-5.279,1.706S174.32,308.48,174.357,309.964z"/>
			<g id="XMLID_2308_">
				<path id="XMLID_2311_" style="fill:#C5C5C5;" d="M207.948,324.77c4.32-0.075,8.303,1.405,11.417,3.923
					c3.114,2.518,5.358,6.075,6.199,10.152c0.11,0.532,0.196,1.073,0.258,1.622c0.062,0.549,0.098,1.105,0.108,1.668
					c0.085,4.882-1.815,9.337-4.957,12.592c-3.142,3.255-7.526,5.311-12.408,5.397c-4.882,0.085-9.335-1.817-12.589-4.96
					c-3.254-3.144-5.308-7.529-5.393-12.412c-0.01-0.562,0.007-1.12,0.05-1.671c0.042-0.551,0.11-1.095,0.201-1.63
					c0.699-4.104,2.817-7.737,5.841-10.362C199.699,326.463,203.628,324.845,207.948,324.77z"/>
				<path id="XMLID_2310_" style="fill:#FFFFFF;" d="M207.948,324.77c4.32-0.075,8.303,1.405,11.417,3.923
					c3.114,2.518,5.358,6.075,6.199,10.152c-0.699,4.111-2.817,7.747-5.841,10.375c-3.024,2.627-6.953,4.245-11.273,4.321
					c-4.32,0.075-8.303-1.405-11.417-3.925c-3.114-2.52-5.358-6.08-6.2-10.164c0.699-4.104,2.817-7.737,5.841-10.362
					C199.699,326.463,203.628,324.845,207.948,324.77z"/>
				<path id="XMLID_2309_" style="fill:#C5C5C5;" d="M210.562,330.845l0.197,11.311l0.197,11.311
					c0.013,0.742-0.276,1.419-0.754,1.913c-0.478,0.495-1.144,0.807-1.886,0.82l0,0l0,0c-0.742,0.013-1.419-0.276-1.913-0.754
					c-0.495-0.478-0.807-1.144-0.82-1.886l-0.197-11.311l-0.197-11.311c-0.013-0.742,0.276-1.419,0.754-1.913
					c0.478-0.495,1.144-0.807,1.886-0.82h0l0,0c0.742-0.013,1.419,0.276,1.913,0.754
					C210.236,329.437,210.549,330.104,210.562,330.845z"/>
			</g>
			<g id="XMLID_2304_">
				<path id="XMLID_2307_" style="fill:#C5C5C5;" d="M206.238,256.254c4.32-0.075,8.303,1.405,11.417,3.923
					c3.114,2.518,5.358,6.075,6.199,10.152c0.11,0.532,0.196,1.073,0.258,1.622c0.062,0.549,0.098,1.105,0.108,1.668
					c0.085,4.882-1.815,9.337-4.957,12.592s-7.526,5.312-12.408,5.397c-4.882,0.085-9.335-1.817-12.589-4.96
					s-5.308-7.529-5.393-12.412c-0.01-0.562,0.007-1.12,0.05-1.671c0.042-0.551,0.11-1.095,0.201-1.63
					c0.699-4.104,2.817-7.737,5.841-10.362S201.919,256.329,206.238,256.254z"/>
				<path id="XMLID_2306_" style="fill:#FFFFFF;" d="M206.238,256.254c4.32-0.075,8.303,1.405,11.417,3.923
					c3.114,2.518,5.358,6.075,6.199,10.152c-0.699,4.111-2.817,7.747-5.841,10.375c-3.024,2.627-6.953,4.245-11.273,4.321
					c-4.32,0.075-8.303-1.405-11.417-3.925c-3.114-2.52-5.358-6.08-6.2-10.164c0.699-4.104,2.817-7.737,5.841-10.362
					S201.919,256.329,206.238,256.254z"/>
				<path id="XMLID_2305_" style="fill:#C5C5C5;" d="M208.853,262.33l0.197,11.311l0.197,11.311
					c0.013,0.742-0.276,1.419-0.754,1.913c-0.478,0.495-1.144,0.807-1.886,0.82l0,0l0,0c-0.742,0.013-1.419-0.276-1.913-0.754
					c-0.495-0.478-0.807-1.144-0.82-1.886l-0.197-11.311l-0.197-11.311c-0.013-0.742,0.276-1.419,0.754-1.913
					c0.478-0.495,1.144-0.807,1.886-0.82h0l0,0c0.742-0.013,1.419,0.276,1.913,0.754C208.527,260.921,208.84,261.588,208.853,262.33
					z"/>
			</g>
			<g id="XMLID_2300_">
				<path id="XMLID_2303_" style="fill:#C5C5C5;" d="M258.059,323.52c4.32-0.075,8.303,1.405,11.417,3.923
					c3.114,2.518,5.358,6.075,6.199,10.152c0.11,0.532,0.196,1.073,0.258,1.622c0.062,0.549,0.098,1.105,0.108,1.668
					c0.085,4.882-1.815,9.337-4.957,12.592c-3.142,3.255-7.526,5.311-12.408,5.397c-4.882,0.085-9.335-1.817-12.589-4.96
					c-3.254-3.144-5.308-7.529-5.393-12.412c-0.01-0.562,0.007-1.12,0.05-1.671c0.042-0.551,0.11-1.095,0.201-1.63
					c0.699-4.104,2.817-7.737,5.841-10.362C249.809,325.213,253.739,323.595,258.059,323.52z"/>
				<path id="XMLID_2302_" style="fill:#FFFFFF;" d="M258.059,323.52c4.32-0.075,8.303,1.405,11.417,3.923
					c3.114,2.518,5.358,6.075,6.199,10.152c-0.699,4.111-2.817,7.747-5.841,10.375s-6.953,4.245-11.273,4.321
					c-4.32,0.075-8.303-1.405-11.417-3.925c-3.114-2.52-5.358-6.08-6.2-10.164c0.699-4.104,2.817-7.737,5.841-10.362
					C249.809,325.213,253.739,323.595,258.059,323.52z"/>
				<path id="XMLID_2301_" style="fill:#C5C5C5;" d="M260.673,329.595l0.197,11.311l0.197,11.311
					c0.013,0.742-0.276,1.419-0.754,1.913c-0.478,0.495-1.144,0.807-1.886,0.82l0,0h0c-0.742,0.013-1.419-0.276-1.913-0.754
					s-0.807-1.144-0.82-1.886L255.497,341l-0.197-11.311c-0.013-0.742,0.276-1.419,0.754-1.913s1.144-0.807,1.886-0.82l0,0l0,0
					c0.742-0.013,1.419,0.276,1.913,0.754C260.347,328.187,260.66,328.854,260.673,329.595z"/>
			</g>
			<g id="XMLID_2295_">
				<path id="XMLID_2299_" style="fill:#C5C5C5;" d="M256.349,255.004c4.32-0.075,8.303,1.405,11.417,3.923
					c3.114,2.518,5.358,6.075,6.199,10.152c0.11,0.532,0.196,1.073,0.258,1.622c0.062,0.549,0.098,1.105,0.108,1.668
					c0.085,4.882-1.815,9.337-4.957,12.592c-3.142,3.255-7.526,5.312-12.408,5.397c-4.882,0.085-9.335-1.817-12.589-4.96
					c-3.254-3.144-5.308-7.529-5.393-12.412c-0.01-0.562,0.007-1.12,0.05-1.671c0.042-0.551,0.11-1.095,0.201-1.63
					c0.699-4.104,2.817-7.737,5.841-10.362S252.029,255.079,256.349,255.004z"/>
				<path id="XMLID_2298_" style="fill:#FFFFFF;" d="M256.349,255.004c4.32-0.075,8.303,1.405,11.417,3.923
					c3.114,2.518,5.358,6.075,6.199,10.152c-0.699,4.111-2.817,7.747-5.841,10.375c-3.024,2.627-6.953,4.245-11.273,4.321
					c-4.32,0.075-8.303-1.405-11.417-3.925c-3.114-2.52-5.358-6.08-6.2-10.164c0.699-4.104,2.817-7.737,5.841-10.362
					S252.029,255.079,256.349,255.004z"/>
				<path id="XMLID_2296_" style="fill:#C5C5C5;" d="M258.963,261.08l0.197,11.311l0.197,11.311
					c0.013,0.742-0.276,1.419-0.754,1.913s-1.144,0.807-1.886,0.82l0,0h0c-0.742,0.013-1.419-0.276-1.913-0.754
					c-0.495-0.478-0.807-1.144-0.82-1.886l-0.197-11.311l-0.197-11.311c-0.013-0.742,0.276-1.419,0.754-1.913
					c0.478-0.495,1.144-0.807,1.886-0.82l0,0l0,0c0.742-0.013,1.419,0.276,1.913,0.754
					C258.638,259.671,258.951,260.338,258.963,261.08z"/>
			</g>
			<g id="XMLID_2291_">
				<path id="XMLID_2294_" style="fill:#C5C5C5;" d="M302.923,322.4c4.32-0.075,8.303,1.405,11.417,3.923
					c3.114,2.518,5.358,6.075,6.199,10.152c0.11,0.532,0.196,1.073,0.258,1.622c0.062,0.549,0.098,1.105,0.108,1.668
					c0.085,4.882-1.815,9.337-4.957,12.592c-3.142,3.255-7.526,5.312-12.408,5.397s-9.335-1.817-12.589-4.96
					c-3.254-3.144-5.308-7.529-5.393-12.412c-0.01-0.562,0.007-1.12,0.05-1.671c0.042-0.551,0.11-1.095,0.201-1.63
					c0.699-4.104,2.817-7.737,5.841-10.362C294.674,324.094,298.603,322.476,302.923,322.4z"/>
				<path id="XMLID_2293_" style="fill:#FFFFFF;" d="M302.923,322.4c4.32-0.075,8.303,1.405,11.417,3.923
					c3.114,2.518,5.358,6.075,6.199,10.152c-0.699,4.111-2.817,7.747-5.841,10.375c-3.024,2.627-6.953,4.245-11.273,4.321
					s-8.303-1.405-11.417-3.925c-3.114-2.52-5.358-6.08-6.2-10.164c0.699-4.104,2.817-7.737,5.841-10.362
					C294.674,324.094,298.603,322.476,302.923,322.4z"/>
				<path id="XMLID_2292_" style="fill:#C5C5C5;" d="M305.537,328.476l0.197,11.311l0.197,11.311
					c0.013,0.742-0.276,1.419-0.754,1.913c-0.478,0.495-1.144,0.807-1.886,0.82l0,0l0,0c-0.742,0.013-1.419-0.276-1.913-0.754
					c-0.495-0.478-0.807-1.144-0.82-1.886l-0.197-11.311l-0.197-11.311c-0.013-0.742,0.276-1.419,0.754-1.913
					c0.478-0.495,1.144-0.807,1.886-0.82l0,0l0,0c0.742-0.013,1.419,0.276,1.913,0.754S305.524,327.734,305.537,328.476z"/>
			</g>
			<g id="XMLID_2287_">
				<path id="XMLID_2290_" style="fill:#C5C5C5;" d="M301.214,253.885c4.32-0.075,8.303,1.405,11.417,3.923
					c3.114,2.518,5.358,6.075,6.199,10.152c0.11,0.532,0.196,1.073,0.258,1.622c0.062,0.549,0.098,1.105,0.108,1.668
					c0.085,4.882-1.815,9.337-4.957,12.592c-3.142,3.255-7.526,5.312-12.408,5.397s-9.335-1.817-12.589-4.96
					s-5.308-7.529-5.393-12.412c-0.01-0.562,0.007-1.12,0.05-1.671c0.042-0.551,0.11-1.095,0.201-1.63
					c0.699-4.104,2.817-7.737,5.841-10.362C292.965,255.578,296.894,253.96,301.214,253.885z"/>
				<path id="XMLID_2289_" style="fill:#FFFFFF;" d="M301.214,253.885c4.32-0.075,8.303,1.405,11.417,3.923
					c3.114,2.518,5.358,6.075,6.199,10.152c-0.699,4.111-2.817,7.747-5.841,10.375c-3.024,2.627-6.953,4.245-11.273,4.321
					c-4.32,0.075-8.303-1.405-11.417-3.925c-3.114-2.52-5.358-6.08-6.2-10.164c0.699-4.104,2.817-7.737,5.841-10.362
					C292.965,255.578,296.894,253.96,301.214,253.885z"/>
				<path id="XMLID_2288_" style="fill:#C5C5C5;" d="M303.828,259.96l0.197,11.311l0.197,11.311
					c0.013,0.742-0.276,1.419-0.754,1.913c-0.478,0.495-1.144,0.807-1.886,0.82l0,0l0,0c-0.742,0.013-1.419-0.276-1.913-0.754
					c-0.495-0.478-0.807-1.144-0.82-1.886l-0.197-11.311l-0.197-11.311c-0.013-0.742,0.276-1.419,0.754-1.913
					c0.478-0.495,1.144-0.807,1.886-0.82l0,0l0,0c0.742-0.013,1.419,0.276,1.913,0.754
					C303.502,258.552,303.815,259.219,303.828,259.96z"/>
			</g>
			<g id="XMLID_2283_">
				<path id="XMLID_2286_" style="fill:#C5C5C5;" d="M345.711,321.333c4.32-0.075,8.303,1.405,11.417,3.923
					c3.114,2.518,5.358,6.075,6.199,10.152c0.11,0.532,0.196,1.073,0.258,1.622c0.062,0.549,0.098,1.105,0.108,1.668
					c0.085,4.882-1.815,9.337-4.957,12.592s-7.526,5.312-12.408,5.397s-9.335-1.817-12.589-4.96s-5.308-7.529-5.393-12.412
					c-0.01-0.562,0.007-1.12,0.05-1.671c0.042-0.551,0.11-1.095,0.201-1.63c0.699-4.104,2.817-7.737,5.841-10.362
					S341.392,321.408,345.711,321.333z"/>
				<path id="XMLID_2285_" style="fill:#FFFFFF;" d="M345.711,321.333c4.32-0.075,8.303,1.405,11.417,3.923
					c3.114,2.518,5.358,6.075,6.199,10.152c-0.699,4.111-2.817,7.747-5.841,10.375c-3.024,2.627-6.953,4.245-11.273,4.321
					c-4.32,0.075-8.303-1.405-11.417-3.925c-3.114-2.52-5.358-6.08-6.2-10.164c0.699-4.104,2.817-7.737,5.841-10.362
					S341.392,321.408,345.711,321.333z"/>
				<path id="XMLID_2284_" style="fill:#C5C5C5;" d="M348.326,327.409l0.197,11.311l0.197,11.311
					c0.013,0.742-0.276,1.419-0.754,1.913c-0.478,0.495-1.144,0.807-1.886,0.82l0,0l0,0c-0.742,0.013-1.419-0.276-1.913-0.754
					c-0.495-0.478-0.807-1.144-0.82-1.886l-0.197-11.311l-0.197-11.311c-0.013-0.742,0.276-1.419,0.754-1.913
					c0.478-0.495,1.144-0.807,1.886-0.82l0,0l0,0c0.742-0.013,1.419,0.276,1.913,0.754C348,326.001,348.313,326.667,348.326,327.409
					z"/>
			</g>
			<g id="XMLID_2279_">
				<path id="XMLID_2282_" style="fill:#C5C5C5;" d="M344.002,252.817c4.32-0.075,8.303,1.405,11.417,3.923
					c3.114,2.518,5.358,6.075,6.199,10.152c0.11,0.532,0.196,1.073,0.258,1.622c0.062,0.549,0.098,1.105,0.108,1.668
					c0.085,4.882-1.815,9.337-4.957,12.592c-3.142,3.255-7.526,5.312-12.408,5.397c-4.882,0.085-9.335-1.817-12.589-4.96
					c-3.254-3.144-5.308-7.529-5.393-12.412c-0.01-0.562,0.007-1.12,0.05-1.671c0.042-0.551,0.11-1.095,0.201-1.63
					c0.699-4.104,2.817-7.737,5.841-10.362S339.682,252.892,344.002,252.817z"/>
				<path id="XMLID_2281_" style="fill:#FFFFFF;" d="M344.002,252.817c4.32-0.075,8.303,1.405,11.417,3.923
					c3.114,2.518,5.358,6.075,6.199,10.152c-0.699,4.111-2.817,7.747-5.841,10.375c-3.024,2.627-6.953,4.245-11.273,4.321
					c-4.32,0.075-8.303-1.405-11.417-3.925c-3.114-2.52-5.358-6.08-6.2-10.164c0.699-4.104,2.817-7.737,5.841-10.362
					S339.682,252.892,344.002,252.817z"/>
				<path id="XMLID_2280_" style="fill:#C5C5C5;" d="M346.616,258.893l0.197,11.311l0.197,11.311
					c0.013,0.742-0.276,1.419-0.754,1.913c-0.478,0.495-1.144,0.807-1.886,0.82l0,0l0,0c-0.742,0.013-1.419-0.276-1.913-0.754
					c-0.495-0.478-0.807-1.144-0.82-1.886l-0.197-11.311l-0.197-11.311c-0.013-0.742,0.276-1.419,0.754-1.913
					c0.478-0.495,1.144-0.807,1.886-0.82l0,0l0,0c0.742-0.013,1.419,0.276,1.913,0.754
					C346.291,257.485,346.603,258.151,346.616,258.893z"/>
			</g>
		</g>
	</g>
</g>
</svg>
