<?xml version="1.0" encoding="utf-8"?>
<!-- Generator: Adobe Illustrator 21.0.0, SVG Export Plug-In . SVG Version: 6.00 Build 0)  -->
<svg version="1.1" xmlns="http://www.w3.org/2000/svg" xmlns:xlink="http://www.w3.org/1999/xlink" x="0px" y="0px"
	 viewBox="0 0 64 64" style="enable-background:new 0 0 64 64;" xml:space="preserve">
<style type="text/css">
	.st0{fill:#68C7C2;}
	.st1{fill:#1CACAB;}
	.st2{fill:#0B3442;}
	.st3{fill:#002539;}
	.st4{fill:#D22227;}
	.st5{fill:#DD2B26;}
	.st6{fill:#F2F2F2;}
	.st7{fill:#A31C37;}
	.st8{fill:#CCCCCC;}
	.st9{fill:#F99D28;}
	.st10{fill:#FCB216;}
	.st11{fill:#FED767;}
	.st12{fill:#F47D36;}
	.st13{fill:#F78F1E;}
	.st14{fill:#FFCA3E;}
	.st15{fill:#2E599C;}
	.st16{fill:#283996;}
	.st17{fill:#4279BD;}
	.st18{fill:#538AC8;}
	.st19{fill:#CCDDE7;}
	.st20{fill:#ABBAC3;}
	.st21{fill:#F05138;}
	.st22{fill:#3B6BB4;}
	.st23{fill:#E54325;}
	.st24{fill:#FEBF3F;}
	.st25{fill:#E6E6E6;}
	.st26{fill:#FFE8C9;}
	.st27{fill:#999999;}
	.st28{fill:#B3B3B3;}
	.st29{fill:none;stroke:#000000;stroke-linecap:round;stroke-linejoin:round;stroke-miterlimit:10;}
	.st30{fill:#BD8150;}
	.st31{fill:#DFA57A;}
	.st32{fill:#FDCC99;}
	.st33{fill:#FED9B4;}
	.st34{fill:#EE2761;}
	.st35{fill:#EF4E79;}
	.st36{fill:#DB1B51;}
	.st37{fill:#FBB684;}
	.st38{fill:#354E5A;}
	.st39{fill:#55C9E9;}
	.st40{fill:#02BFE2;}
	.st41{fill:#0980B7;}
	.st42{fill:#A36841;}
	.st43{fill:#7EC3EC;}
	.st44{fill:#65A8DC;}
	.st45{fill:#57646E;}
	.st46{fill:#7A8D9D;}
	.st47{fill:#FEE7A3;}
	.st48{fill:#CC2B57;}
	.st49{fill:#F16F8D;}
	.st50{fill:#00969D;}
	.st51{fill:#00A8C7;}
	.st52{fill:#00B08E;}
	.st53{fill:#56BF98;}
	.st54{fill:#8AD5EC;}
</style>
<g id="guides">
</g>
<g id="_x32_5._location_pin">
</g>
<g id="_x32_4._first_aid_kit">
</g>
<g id="_x32_3._medicine">
	<path class="st9" d="M28,17.5v5c0,0.2799683-0.2199707,0.5-0.5,0.5h-20C7.2199707,23,7,22.7799683,7,22.5v-5
		C7,17.2199707,7.2199707,17,7.5,17h20C27.7800293,17,28,17.2199707,28,17.5z"/>
	<path class="st10" d="M28,17.5V20H12.9999971C11.3431444,20,10,18.6568565,10,17.0000038V17h17.5
		C27.7761421,17,28,17.2238579,28,17.5z"/>
	<path class="st11" d="M32,24.5v25c0,0.1599731-0.0200195,0.3299561-0.0499878,0.4799805
		C31.7600098,50.9699707,30.9799805,51.75,30,51.9500122V52.5c0,0.8299561-0.6699829,1.5-1.5,1.5h-22
		C5.6699829,54,5,53.3299561,5,52.5v-0.5499878C3.8599854,51.7199707,3,50.7099609,3,49.5v-25C3,23.1199951,4.1199951,22,5.5,22h24
		C30.8800049,22,32,23.1199951,32,24.5z"/>
	<path class="st12" d="M30,12.5v3c0,0.1699829-0.0200195,0.3399658-0.0499878,0.5C29.7199707,17.1400146,28.710022,18,27.5,18h-20
		C6.1199951,18,5,16.8800049,5,15.5v-3C5,11.1199951,6.1199951,10,7.5,10h20C28.8800049,10,30,11.1199951,30,12.5z"/>
	<path class="st13" d="M30,12.5v3.4500122C29.9805584,15.9694529,29.9694538,15.9805593,29.9500122,16H13.4999943
		C10.462431,16,8,13.537569,8,10.5000057V10.5c0.1944542-0.1944542,0.3055458-0.3055458,0.5-0.5h19
		C28.8807125,10,30,11.1192884,30,12.5z"/>
	<path class="st14" d="M31.9500122,49.9799805C31.7600098,50.9699707,30.9799805,51.75,30,51.9500122V52.5
		c0,0.8299561-0.6699829,1.5-1.5,1.5h-22C5.6699829,54,5,53.3299561,5,52.5v-0.5499878C3.8599854,51.7199707,3,50.7099609,3,49.5
		v-25C3,23.1199951,4.1199951,22,5.5,22H9C9,22,7.0499878,49.2399902,31.9500122,49.9799805z"/>
	<rect x="3" y="32" class="st15" width="29" height="11"/>
	<path class="st16" d="M9.9956055,32H3v11h12.4567871C12.5046997,39.6743164,10.8792114,35.6422119,9.9956055,32z"/>
	<g>
		<path class="st6" d="M28.5,36c0.2763672,0,0.5-0.2236328,0.5-0.5S28.7763672,35,28.5,35h-22C6.2236328,35,6,35.2236328,6,35.5
			S6.2236328,36,6.5,36H8v4.5C8,40.7763672,8.2236328,41,8.5,41S9,40.7763672,9,40.5V36H28.5z"/>
		<path class="st6" d="M28.5,38h-18c-0.2763672,0-0.5,0.2236328-0.5,0.5s0.2236328,0.5,0.5,0.5h18
			c0.2763672,0,0.5-0.2236328,0.5-0.5S28.7763672,38,28.5,38z"/>
	</g>
	<path class="st8" d="M10.8855591,35H6.5C6.2236328,35,6,35.2236328,6,35.5S6.2236328,36,6.5,36H8v4.5
		C8,40.7763672,8.2236328,41,8.5,41S9,40.7763672,9,40.5V36h2.2575684C11.1262817,35.6663818,11.0024414,35.3328857,10.8855591,35z"
		/>
	<path class="st8" d="M12.1450195,38H10.5c-0.2763672,0-0.5,0.2236328-0.5,0.5s0.2236328,0.5,0.5,0.5h2.1550903
		C12.4732666,38.6693726,12.3095703,38.3345337,12.1450195,38z"/>
	<path class="st17" d="M53,40.5c0,1-0.2700195,1.9400024-0.75,2.75C51.3099976,44.8900146,49.5300293,46,47.5,46
		c-1.3400269,0-2.5599976-0.4800415-3.5200195-1.2700195c-0.25-0.2199707-0.4899902-0.460022-0.7099609-0.710022
		C42.4799805,43.0599976,42,41.8399658,42,40.5c0-2.0300293,1.1099854-3.8099976,2.75-4.75C45.5599976,35.2699585,46.5,35,47.5,35
		c1.3400269,0,2.5599976,0.4799805,3.5200195,1.2799683c0.25,0.210022,0.4899902,0.4500122,0.6999512,0.7000122
		C52.5200195,37.9400024,53,39.1599731,53,40.5z"/>
	<path class="st18" d="M53,40.5c0,1-0.2700195,1.9400024-0.75,2.75C51.4400024,43.7299805,50.5,44,49.5,44
		c-1.3400269,0-2.5599976-0.4800415-3.5200195-1.2700195c-0.25-0.2199707-0.4899902-0.460022-0.7099609-0.710022
		C44.4799805,41.0599976,44,39.8399658,44,38.5c0-1,0.2700195-1.9400024,0.75-2.75C45.5599976,35.2699585,46.5,35,47.5,35
		c1.3400269,0,2.5599976,0.4799805,3.5200195,1.2799683c0.25,0.210022,0.4899902,0.4500122,0.6999512,0.7000122
		C52.5200195,37.9400024,53,39.1599731,53,40.5z"/>
	<g>
		<path class="st16" d="M51.7199707,36.9799805l-7.7399902,7.75c-0.25-0.2199707-0.4899902-0.460022-0.7099609-0.710022
			l7.75-7.7399902C51.2700195,36.4899902,51.5100098,36.7299805,51.7199707,36.9799805z"/>
	</g>
	<path class="st15" d="M45.9786987,42.7286987l5.741272-5.7487183c-0.2099609-0.25-0.4499512-0.4899902-0.6999512-0.7000122
		l-5.7487183,5.741272C45.4904175,42.2703857,45.7295532,42.5095825,45.9786987,42.7286987z"/>
	<path class="st19" d="M43.5,47h-6c-1.9296875,0-3.5,1.5703125-3.5,3.5s1.5703125,3.5,3.5,3.5h6c1.9296875,0,3.5-1.5703125,3.5-3.5
		S45.4296875,47,43.5,47z"/>
	<path class="st20" d="M46,52.9400024C45.3699951,53.5999756,44.4799805,54,43.5,54h-6c-1.9299927,0-3.5-1.5700073-3.5-3.5
		c0-1.4100342,0.8300171-2.6199951,2.039978-3.1700439C36.2299805,48.5,37.5100098,52.4099731,46,52.9400024z"/>
	<path class="st19" d="M61,50.5c0,0.9500122-0.3800049,1.8099976-1,2.4400024C59.3699951,53.5999756,58.4799805,54,57.5,54h-6
		c-1.9299927,0-3.5-1.5700073-3.5-3.5c0-1.4100342,0.8300171-2.6199951,2.039978-3.1700439
		C50.4799805,47.1099854,50.9799805,47,51.5,47h6C59.4299927,47,61,48.5700073,61,50.5z"/>
	<g>
		<path class="st21" d="M47,50.5c0,1.9299927-1.5700073,3.5-3.5,3.5H40v-7h3.5C45.4299927,47,47,48.5700073,47,50.5z"/>
	</g>
	<path class="st20" d="M60,52.9400024C59.3699951,53.5999756,58.4799805,54,57.5,54h-6c-1.9299927,0-3.5-1.5700073-3.5-3.5
		c0-1.4100342,0.8300171-2.6199951,2.039978-3.1700439C50.2299805,48.5,51.5100098,52.4099731,60,52.9400024z"/>
	<g>
		<path class="st21" d="M61,50.5c0,1.9299927-1.5700073,3.5-3.5,3.5H54v-7h3.5C59.4299927,47,61,48.5700073,61,50.5z"/>
	</g>
	<path class="st5" d="M58.6746216,53.7825317c0.0622559-0.0222778,0.1292114-0.0340576,0.1896973-0.0597534
		c0.1179199-0.0501099,0.2241821-0.119812,0.335083-0.1820679c0.0889893-0.0502319,0.1838379-0.0910034,0.2677002-0.1487427
		c0.0500488-0.0341797,0.0915527-0.0786743,0.1397095-0.1152954C59.7437744,53.1712036,59.8805542,53.0651245,60,52.9400024
		c-2.633667-0.1644287-4.5712891-0.6547241-6-1.2869873V54h3.5c0.2420044,0,0.4782715-0.0252686,0.7067871-0.0719604
		C58.3689575,53.8946533,58.5214844,53.8375244,58.6746216,53.7825317z"/>
	<path class="st5" d="M44.6746216,53.7825317c0.0622559-0.0222778,0.1292114-0.0340576,0.1896973-0.0597534
		c0.1179199-0.0501099,0.2241821-0.119812,0.335083-0.1820679c0.0889893-0.0502319,0.1838379-0.0910034,0.2677002-0.1487427
		c0.0500488-0.0341797,0.0915527-0.0786743,0.1397095-0.1152954C45.7437744,53.1712036,45.8805542,53.0651245,46,52.9400024
		c-2.633667-0.1644287-4.5712891-0.6547241-6-1.2869873V54h3.5c0.2420044,0,0.4782715-0.0252686,0.7067871-0.0719604
		C44.3689575,53.8946533,44.5214844,53.8375244,44.6746216,53.7825317z"/>
	<g>
		<path d="M29.5,22H28v-4.0505371c1.1397095-0.2322998,2-1.2418213,2-2.4494629v-3c0-1.3789063-1.121582-2.5-2.5-2.5h-1
			c-0.2763672,0-0.5,0.2236328-0.5,0.5s0.2236328,0.5,0.5,0.5h1c0.8271484,0,1.5,0.6728516,1.5,1.5v3
			c0,0.8271484-0.6728516,1.5-1.5,1.5h-20C6.6728516,17,6,16.3271484,6,15.5v-3C6,11.6728516,6.6728516,11,7.5,11h15
			c0.2763672,0,0.5-0.2236328,0.5-0.5S22.7763672,10,22.5,10h-15C6.121582,10,5,11.1210938,5,12.5v3
			c0,1.2076416,0.8602905,2.2171631,2,2.4494629V22H5.5C4.121582,22,3,23.1210938,3,24.5c0,8.7880936,0,15.5973206,0,25
			c0,1.2070313,0.8603516,2.2177734,2,2.4501953V52.5C5,53.3271484,5.6728516,54,6.5,54h22c0.8271484,0,1.5-0.6728516,1.5-1.5
			v-0.5498047c1.1396484-0.2324219,2-1.2431641,2-2.4501953c0-13.0647087,0-6.0855751,0-19c0-0.2763672-0.2236328-0.5-0.5-0.5
			S31,30.2236328,31,30.5V32H4v-7.5C4,23.6728516,4.6728516,23,5.5,23c8.0221395,0,16.0316811,0,24,0
			c0.8271484,0,1.5,0.6728516,1.5,1.5v2c0,0.2763672,0.2236328,0.5,0.5,0.5s0.5-0.2236328,0.5-0.5v-2
			C32,23.1210938,30.878418,22,29.5,22z M29.5,51c-0.2763672,0-0.5,0.2236328-0.5,0.5v1c0,0.2753906-0.2241211,0.5-0.5,0.5h-22
			C6.2241211,53,6,52.7753906,6,52.5v-1C6,51.2236328,5.7763672,51,5.5,51C4.6728516,51,4,50.3271484,4,49.5V43h27v6.5
			C31,50.3271484,30.3271484,51,29.5,51z M31,33v9H4v-9H31z M8,22v-4h19v4H8z"/>
		<path d="M6.5,36H8v4.5C8,40.7763672,8.2236328,41,8.5,41S9,40.7763672,9,40.5V36h19.5c0.2763672,0,0.5-0.2236328,0.5-0.5
			S28.7763672,35,28.5,35h-22C6.2236328,35,6,35.2236328,6,35.5S6.2236328,36,6.5,36z"/>
		<path d="M28.5,38h-3c-0.2763672,0-0.5,0.2236328-0.5,0.5s0.2236328,0.5,0.5,0.5h3c0.2763672,0,0.5-0.2236328,0.5-0.5
			S28.7763672,38,28.5,38z"/>
		<path d="M21.5,38h-11c-0.2763672,0-0.5,0.2236328-0.5,0.5s0.2236328,0.5,0.5,0.5h11c0.2763672,0,0.5-0.2236328,0.5-0.5
			S21.7763672,38,21.5,38z"/>
		<path d="M51.3564453,43.7197266c-0.1923828-0.1953125-0.5078125-0.1992188-0.7070313-0.0058594
			C49.8046875,44.5429688,48.6855469,45,47.5,45c-1.0604248,0-2.0233154-0.3839111-2.7932129-0.9997559l6.293457-6.293457
			C51.6160889,38.4766846,52,39.4395752,52,40.5c0,0.2763672,0.2236328,0.5,0.5,0.5s0.5-0.2236328,0.5-0.5
			c0-3.0322266-2.4677734-5.5-5.5-5.5S42,37.4677734,42,40.5c0,3.0299568,2.4662666,5.5,5.5,5.5
			c1.4492188,0,2.8173828-0.5585938,3.8505859-1.5732422C51.546875,44.2333984,51.5498047,43.9169922,51.3564453,43.7197266z
			 M47.5,36c1.0604248,0,2.0233154,0.3839111,2.7932129,0.9997559l-6.293457,6.293457C43.3839111,42.5233154,43,41.5604248,43,40.5
			C43,38.0185547,45.0185547,36,47.5,36z"/>
		<path d="M43.5,47h-6c-1.9296875,0-3.5,1.5703125-3.5,3.5s1.5703125,3.5,3.5,3.5h4c0.2763672,0,0.5-0.2236328,0.5-0.5
			S41.7763672,53,41.5,53H41v-5h2.5c1.3789063,0,2.5,1.1210938,2.5,2.5S44.8789063,53,43.5,53c-0.2763672,0-0.5,0.2236328-0.5,0.5
			s0.2236328,0.5,0.5,0.5c1.9296875,0,3.5-1.5703125,3.5-3.5S45.4296875,47,43.5,47z M40,53h-2.5
			c-1.3789063,0-2.5-1.1210938-2.5-2.5s1.1210938-2.5,2.5-2.5H40V53z"/>
		<path d="M57.5,47c-0.2763672,0-0.5,0.2236328-0.5,0.5s0.2236328,0.5,0.5,0.5c1.3789063,0,2.5,1.1210938,2.5,2.5
			S58.8789063,53,57.5,53H55v-5h0.5c0.2763672,0,0.5-0.2236328,0.5-0.5S55.7763672,47,55.5,47h-4
			c-1.9296875,0-3.5,1.5703125-3.5,3.5s1.5703125,3.5,3.5,3.5h6c1.9296875,0,3.5-1.5703125,3.5-3.5S59.4296875,47,57.5,47z M49,50.5
			c0-1.3789063,1.1210938-2.5,2.5-2.5H54v5h-2.5C50.1210938,53,49,51.8789063,49,50.5z"/>
	</g>
</g>
<g id="_x32_2._pills">
</g>
<g id="_x32_1._flask">
</g>
<g id="_x32_0._syringe">
</g>
<g id="_x31_9._brain">
</g>
<g id="_x31_8._bandage">
</g>
<g id="_x31_7._bed">
</g>
<g id="_x31_6._blood_test">
</g>
<g id="_x31_5._rx">
</g>
<g id="_x31_4._injury">
</g>
<g id="_x31_3._call">
</g>
<g id="_x31_2._heart">
</g>
<g id="_x31_1._stethoscope">
</g>
<g id="_x31_0._hospital">
</g>
<g id="_x39_._blood_donation">
</g>
<g id="_x38_._charity">
</g>
<g id="_x37_._test_tube">
</g>
<g id="_x36_._expenses">
</g>
<g id="_x35_._folder">
</g>
<g id="_x34_._insurance">
</g>
<g id="_x33_._dna">
</g>
<g id="_x32_._health_report">
</g>
<g id="_x31_._ambulance">
</g>
</svg>
